<?xml version="1.0" standalone="no"?>
<!DOCTYPE svg PUBLIC "-//W3C//DTD SVG 20010904//EN"
 "http://www.w3.org/TR/2001/REC-SVG-20010904/DTD/svg10.dtd">
<svg version="1.0" xmlns="http://www.w3.org/2000/svg"
 width="700.000000pt" height="700.000000pt" viewBox="0 0 700.000000 700.000000"
 preserveAspectRatio="xMidYMid meet">
<metadata>
Created by potrace 1.14, written by Peter Selinger 2001-2017
</metadata>
<g transform="translate(0.000000,700.000000) scale(0.100000,-0.100000)"
fill="#000000" stroke="none">
<path d="M3547 6644 c-1 -1 -58 -4 -127 -8 -160 -7 -246 -15 -292 -27 -42 -11
-61 -39 -71 -102 -7 -45 -53 -148 -118 -266 -47 -84 -47 -86 -35 -161 2 -8 6
-40 11 -70 4 -30 9 -63 10 -72 19 -101 27 -462 13 -585 -9 -75 -16 -90 -62
-131 l-36 -31 -46 20 c-176 78 -332 213 -453 392 -34 50 -52 61 -111 70 -72
11 -137 26 -211 50 -42 13 -89 23 -105 21 -29 -3 -87 -58 -230 -214 -32 -36
-85 -95 -118 -130 -92 -102 -92 -119 -5 -212 32 -35 72 -89 89 -121 17 -31 58
-85 91 -119 133 -140 191 -404 129 -595 -33 -103 -66 -159 -142 -242 -164
-178 -449 -309 -788 -364 -148 -24 -202 -29 -390 -33 -96 -2 -180 -3 -186 -4
-55 -2 -100 -157 -69 -242 9 -23 18 -65 20 -93 1 -27 6 -93 9 -145 4 -52 11
-120 16 -150 6 -30 12 -71 14 -90 7 -57 36 -190 57 -270 12 -41 20 -101 20
-133 -2 -94 59 -209 117 -222 19 -4 57 3 108 20 148 48 317 89 509 121 22 4
122 8 223 9 142 1 204 -2 275 -16 131 -26 125 -24 213 -58 281 -108 436 -330
429 -612 -3 -113 -14 -168 -51 -242 -19 -37 -41 -99 -49 -137 -8 -38 -31 -101
-50 -140 -37 -73 -42 -99 -25 -131 13 -23 43 -42 260 -167 195 -113 233 -132
258 -132 11 0 59 26 108 59 49 32 121 75 159 96 39 21 75 42 81 47 7 5 24 48
39 96 57 184 169 360 303 474 l43 38 48 -24 c26 -14 52 -30 58 -38 16 -21 88
-205 116 -298 38 -124 67 -253 83 -365 3 -22 10 -56 15 -75 5 -19 9 -49 9 -66
0 -27 17 -48 109 -140 59 -60 129 -142 155 -181 32 -51 55 -75 73 -79 14 -4
70 3 127 15 56 12 112 24 126 27 112 23 472 135 594 186 82 33 83 34 195 159
115 127 121 135 236 279 89 111 100 129 100 165 0 28 -7 48 -23 65 -49 53
-214 287 -228 323 -3 8 29 72 71 143 96 162 99 181 32 247 -169 166 -247 344
-233 532 3 44 12 102 20 128 51 161 174 315 351 437 126 86 393 193 540 215
11 1 36 6 55 10 53 10 83 13 225 21 72 4 137 12 146 18 9 6 42 35 74 64 32 29
74 64 94 76 71 46 74 54 67 161 -3 53 -11 128 -16 168 -6 40 -13 88 -16 107
-18 140 -63 338 -81 367 -9 13 -36 28 -69 38 -30 9 -91 33 -136 54 -47 22 -93
37 -107 36 -14 -2 -80 -17 -145 -34 -155 -40 -261 -54 -421 -55 -157 -1 -240
8 -361 39 -391 99 -625 358 -610 674 6 111 25 184 81 298 25 50 45 102 45 115
0 30 -22 61 -74 107 -23 20 -69 63 -104 96 l-64 61 16 59 c8 33 36 121 62 195
53 155 60 190 45 218 -17 31 -355 254 -533 351 -65 36 -87 43 -155 47 -77 6
-421 12 -426 8z m367 -199 c0 -18 -12 -105 -19 -145 -2 -8 -8 -58 -15 -110 -6
-52 -13 -104 -15 -115 -2 -11 -4 -25 -4 -32 -1 -7 -29 -1 -78 18 -111 43 -261
87 -392 114 -63 13 -117 27 -121 32 -5 4 -11 61 -15 126 -5 94 -4 117 7 118
66 3 184 12 186 14 2 2 108 2 235 1 225 -1 232 -2 231 -21z m327 -125 c46 -29
95 -61 108 -71 22 -17 22 -19 5 -25 -54 -17 -178 -82 -241 -125 -40 -27 -73
-44 -73 -37 0 16 38 283 46 320 l5 27 33 -18 c18 -11 71 -43 117 -71z m181
-322 c-39 -121 -72 -253 -88 -357 -3 -18 -8 -43 -10 -55 -8 -35 -18 -195 -18
-281 0 -355 112 -646 332 -863 186 -182 460 -304 764 -338 29 -3 64 -8 78 -10
32 -6 337 -6 370 0 14 2 54 7 90 11 58 5 136 16 225 31 25 4 126 25 187 39 18
4 23 -10 34 -90 3 -27 8 -53 10 -56 1 -3 6 -28 10 -55 3 -27 8 -58 10 -69 2
-11 6 -39 9 -62 3 -24 7 -63 10 -88 l6 -45 -33 -1 c-18 0 -42 -2 -53 -4 -11
-2 -49 -7 -85 -10 -36 -3 -72 -8 -80 -10 -8 -2 -35 -7 -60 -10 -144 -19 -350
-70 -490 -122 -507 -188 -810 -510 -883 -938 -13 -75 -15 -310 -4 -361 3 -12
8 -39 11 -60 34 -219 185 -552 364 -803 l46 -64 -70 6 c-86 8 -200 37 -295 75
l-73 29 -73 139 c-313 598 -551 1310 -648 1939 -32 205 -49 342 -60 480 -2 22
-7 85 -11 140 -10 123 -11 652 -1 795 8 113 15 201 22 265 3 22 7 65 11 95 3
30 7 66 9 80 3 14 7 50 11 80 3 30 9 73 14 95 5 22 12 65 15 95 4 30 8 57 10
60 4 7 18 95 18 118 0 16 84 88 163 140 72 48 212 115 223 106 1 -1 -6 -31
-17 -66z m-1182 26 c153 -20 394 -89 557 -157 84 -35 85 -37 71 -112 -16 -83
-28 -154 -33 -195 -3 -25 -10 -72 -15 -105 -8 -53 -13 -97 -25 -195 -3 -22
-12 -132 -20 -230 -21 -256 -22 -823 -1 -990 2 -14 7 -63 10 -108 7 -81 10
-114 21 -197 3 -22 8 -58 11 -80 4 -35 44 -276 59 -360 80 -436 273 -1042 461
-1443 19 -40 34 -75 34 -78 0 -3 43 -90 95 -195 l95 -190 -27 -25 c-69 -61
-270 -208 -357 -259 -144 -84 -299 -156 -308 -143 -3 7 -10 35 -13 63 -12 88
-72 326 -115 450 -77 222 -202 456 -332 623 -79 101 -263 282 -360 355 -251
188 -600 333 -918 382 -25 4 -52 9 -60 10 -8 1 -42 6 -75 9 -33 4 -80 9 -105
12 -98 11 -422 5 -565 -11 -166 -18 -163 -17 -290 -40 -49 -9 -104 -19 -120
-21 -17 -3 -96 -22 -176 -43 l-147 -38 -21 91 c-27 115 -48 226 -56 296 -3 30
-8 66 -10 80 -2 14 -7 64 -10 113 l-5 87 43 1 c23 0 60 2 82 4 22 2 81 6 130
9 50 4 100 8 111 10 11 2 45 7 75 10 30 3 65 8 79 10 14 3 68 12 120 21 52 8
142 27 200 41 58 14 112 27 120 29 42 9 282 91 327 111 28 13 54 24 56 24 14
0 188 86 271 135 285 164 513 374 686 630 56 84 138 235 170 315 12 30 26 64
31 75 29 69 84 275 99 375 7 41 14 83 16 93 25 135 22 488 -6 677 -5 36 -10
71 -10 79 0 13 21 13 150 -5z m1310 -509 l34 -35 -22 -47 c-33 -74 -62 -156
-62 -178 0 -11 -5 -27 -10 -35 -8 -13 -7 192 2 308 3 31 19 28 58 -13z m-2605
-22 c75 -102 248 -275 349 -350 188 -139 381 -194 529 -149 26 8 47 10 47 6 0
-5 -14 -48 -31 -97 -100 -287 -303 -580 -527 -760 -26 -21 -53 -44 -60 -51 -7
-6 -64 -45 -125 -86 -131 -87 -342 -196 -427 -221 -14 -4 -29 -11 -35 -15 -5
-4 -32 -15 -60 -23 -27 -9 -85 -27 -127 -41 -43 -13 -78 -23 -78 -21 0 2 39
22 87 45 181 85 361 229 452 363 62 91 104 200 126 322 11 60 6 193 -10 270
-29 141 -80 256 -176 395 -55 81 -74 104 -142 177 -26 28 -28 33 -16 51 21 29
192 212 198 212 4 0 15 -12 26 -27z m296 -51 l42 -57 -57 55 c-56 54 -69 74
-42 64 8 -3 34 -31 57 -62z m-306 -2756 c11 -2 47 -7 80 -11 33 -3 80 -10 105
-15 452 -87 807 -279 1079 -585 43 -48 151 -190 151 -198 0 -2 -25 -5 -56 -6
-126 -5 -280 -88 -373 -202 -19 -23 -41 -47 -47 -54 -51 -51 -191 -303 -244
-440 -13 -33 -27 -64 -31 -69 -4 -5 -68 26 -142 69 l-134 78 17 36 c166 348
186 666 56 922 -132 264 -431 440 -806 476 -30 3 -57 7 -60 10 -6 6 374 -4
405 -11z m3102 -647 c22 -30 52 -65 66 -78 l25 -23 -20 -37 c-38 -67 -40 -68
-66 -9 -27 62 -92 253 -92 271 0 6 11 -6 24 -29 13 -22 41 -65 63 -95z m-2159
-774 c-20 -54 -37 -80 -46 -71 -2 2 12 33 30 70 17 36 33 64 35 63 1 -2 -8
-30 -19 -62z m2030 -74 c73 -19 169 -34 220 -35 12 0 22 -2 22 -4 0 -4 -146
-178 -190 -225 l-25 -27 -17 32 c-33 65 -138 287 -138 292 0 3 11 1 25 -4 14
-5 60 -19 103 -29z m-288 -31 c0 -11 60 -140 121 -263 l49 -97 -27 -11 c-170
-65 -608 -187 -622 -173 -3 2 -7 15 -8 27 -2 12 -14 65 -27 117 l-23 95 91 48
c101 53 281 171 366 240 39 32 59 42 68 34 6 -5 12 -13 12 -17z"/>
</g>
</svg>
