<svg xmlns="http://www.w3.org/2000/svg" version="1.1" xmlns:xlink="http://www.w3.org/1999/xlink" xmlns:svgjs="http://svgjs.com/svgjs" width="800" height="800">
<svg xmlns="http://www.w3.org/2000/svg" viewBox="0 0 800 800" width="800" height="800" style="background-color:#000000;">
<path d="
M335.46 668.59A115.97 103.85 121.93 0 1 381.74 597.70 
M252.64 659.94A229.19 130.69 149.38 0 0 71.66 518.04 
M263.45 628.72L263.49 628.67 263.52 628.60 263.56 628.54 263.61 628.46 263.65 628.38 263.71 628.29 263.77 628.19 263.83 628.07 263.91 627.95 263.98 627.81 264.07 627.66 264.17 627.49 264.28 627.31 264.39 627.10 264.52 626.88 264.66 626.63 264.82 626.35 264.99 626.04 265.18 625.70 265.39 625.33 265.62 624.91 265.87 624.45 266.14 623.94 266.44 623.38 266.77 622.75 267.12 622.06 267.52 621.30 267.94 620.45 268.40 619.52 268.90 618.48 269.45 617.33 270.03 616.06 270.66 614.65
M302.61 688.62A293.96 102.58 90.77 0 1 405.23 606.27 
M455.17 698.74A335.81 122.49 89.08 0 1 463.83 734.14 
M258.01 163.05A115.95 103.83 40.65 0 0 323.39 216.84 
M181.58 196.09A229.19 130.69 13.20 0 1 51.38 385.67 
M201.25 222.65A108.04 71.63 62.95 0 1 212.34 233.91 
M220.68 153.77A293.96 102.58 71.81 0 0 343.24 201.62 
M363.21 98.45A294.90 102.65 71.84 0 0 360.87 62.07 
M598.27 576.92A156.26 107.83 0.26 0 1 719.45 403.72 
M530.43 649.23A269.04 38.13 59.27 0 0 557.63 706.96 
M536.21 171.84A156.26 107.83 162.32 0 0 703.69 300.82 
M449.84 123.16A255.44 36.28 103.30 0 1 458.51 59.93 
M62.51 501.79A698.23 378.34 130.34 0 1 432.59 697.01 
M47.52 403.91A698.23 378.34 32.24 0 0 342.19 106.85 
M745.55 385.43A422.96 213.07 22.39 0 0 605.26 650.10 
M734.06 310.46A422.96 213.07 140.19 0 1 520.97 99.92 
M533.02 641.63A2044.24 1219.78 171.29 0 1 453.34 135.95 
M302.35 689.39A183.53 55.81 167.98 0 1 335.30 669.23 
M561.25 714.07A183.81 55.94 167.98 0 1 465.43 742.17 
M263.14 629.25A160.10 81.03 60.21 0 1 257.88 649.99 
M60.43 502.73L60.39 502.54 60.35 502.36 60.30 502.18 60.26 502.00 60.22 501.81 60.18 501.63 60.14 501.45 60.09 501.27 60.05 501.09 60.01 500.90 59.97 500.72 59.93 500.54 59.89 500.36 59.85 500.18 59.81 500.00 59.77 499.82 59.73 499.63 59.69 499.45 59.65 499.27 59.61 499.09 59.57 498.91 59.53 498.73 59.49 498.55 59.46 498.37 59.42 498.19 59.38 498.01 59.34 497.83 59.30 497.65 59.27 497.47 59.23 497.29 59.19 497.11 59.15 496.93 59.12 496.75 59.08 496.57 59.04 496.39 59.01 496.21 58.97 496.03 58.94 495.86 58.90 495.68 58.86 495.50 58.83 495.32 58.79 495.14 58.76 494.96 58.72 494.78 58.69 494.61
M252.26 660.62A230.56 33.42 31.21 0 0 302.35 689.39 
M60.98 502.25A237.23 34.53 31.22 0 0 65.26 520.27 
M465.43 742.17A237.17 34.52 31.22 0 0 433.61 705.35 
M257.67 162.48A183.79 55.94 174.60 0 1 220.19 153.11 
M359.99 53.94A183.78 55.94 174.60 0 1 459.84 52.06 
M189.56 204.02A157.19 79.71 102.42 0 1 200.79 222.24 
M46.02 411.91L46.00 411.73 45.98 411.55 45.96 411.37 45.94 411.19 45.92 411.00 45.90 410.82 45.88 410.64 45.86 410.46 45.84 410.28 45.82 410.10 45.81 409.92 45.79 409.73 45.77 409.55 45.75 409.37 45.73 409.19 45.71 409.00 45.70 408.82 45.68 408.64 45.66 408.45 45.64 408.27 45.63 408.09 45.61 407.90 45.59 407.72 45.57 407.54 45.56 407.35 45.54 407.17 45.52 406.98 45.51 406.80 45.49 406.61 45.48 406.43 45.46 406.25 45.44 406.06 45.43 405.87 45.41 405.69 45.40 405.50 45.38 405.32 45.37 405.13 45.35 404.95 45.34 404.76 45.32 404.57 45.31 404.39 45.29 404.20 45.28 404.01 45.27 403.83 45.25 403.64
M220.19 153.11A237.62 34.54 131.36 0 0 181.01 195.56 
M340.66 98.59A237.23 34.53 131.36 0 0 359.99 53.94 
M44.61 385.45A237.23 34.53 131.36 0 0 45.92 403.93 
M579.09 611.37L579.15 611.27 579.21 611.16 579.27 611.06 579.33 610.95 579.39 610.84 579.45 610.74 579.50 610.63 579.56 610.53 579.62 610.42 579.68 610.31 579.74 610.21 579.80 610.10 579.86 610.00 579.92 609.89 579.98 609.78 580.04 609.68 580.09 609.57 580.15 609.47 580.21 609.36 580.27 609.25 580.33 609.15 580.39 609.04 580.45 608.94 580.51 608.83 580.57 608.72 580.63 608.62 580.69 608.51 580.75 608.41 580.81 608.30 580.87 608.19 580.92 608.09 580.98 607.98 581.04 607.87 581.10 607.77 581.16 607.66 581.22 607.56 581.28 607.45 581.34 607.34 581.40 607.24 581.46 607.13 581.52 607.03 581.58 606.92 581.64 606.81 581.70 606.71 581.76 606.60 581.82 606.49 581.88 606.39 581.94 606.28 582.00 606.18 582.06 606.07 582.12 605.96 582.18 605.86 582.24 605.75 582.29 605.65 582.35 605.54 582.41 605.43 582.47 605.33 582.53 605.22 582.59 605.11 582.65 605.01 582.71 604.90 582.77 604.80 582.83 604.69 582.89 604.58 582.95 604.48 583.01 604.37 583.07 604.26 583.13 604.16 583.19 604.05 583.25 603.95 583.31 603.84 583.37 603.73 583.43 603.63 583.49 603.52 583.55 603.41 583.61 603.31 583.67 603.20 583.73 603.10 583.79 602.99 583.85 602.88 583.91 602.78 583.98 602.67 584.04 602.56 584.10 602.46 584.16 602.35 584.22 602.24 584.28 602.14 584.34 602.03 584.40 601.93 584.46 601.82 584.52 601.71 584.58 601.61 584.64 601.50 584.70 601.39 584.76 601.29 584.82 601.18 584.88 601.08 584.94 600.97 585.00 600.86 585.06 600.76 585.12 600.65 585.18 600.54 585.24 600.44 585.30 600.33 585.36 600.22 585.43 600.12 585.49 600.01 585.55 599.91 585.61 599.80 585.67 599.69 585.73 599.59 585.79 599.48 585.85 599.37 585.91 599.27 585.97 599.16 586.03 599.05 586.09 598.95 586.15 598.84 586.21 598.73 586.28 598.63 586.34 598.52 586.40 598.42 586.46 598.31 586.52 598.20 586.58 598.10 586.64 597.99 586.70 597.88 586.76 597.78 586.82 597.67 586.88 597.56 586.95 597.46 587.01 597.35 587.07 597.25 587.13 597.14 587.19 597.03 587.25 596.93 587.31 596.82 587.37 596.71 587.43 596.61 587.49 596.50 587.56 596.39 587.62 596.29 587.68 596.18 587.74 596.07 587.80 595.97 587.86 595.86 587.92 595.75 587.98 595.65 588.05 595.54 588.11 595.44 588.17 595.33 588.23 595.22 588.29 595.12 588.35 595.01 588.41 594.90 588.47 594.80 588.54 594.69 588.60 594.58 588.66 594.48 588.72 594.37 588.78 594.26 588.84 594.16 588.90 594.05 588.97 593.95 589.03 593.84 589.09 593.73 589.15 593.63 589.21 593.52 589.27 593.41 589.34 593.31 589.40 593.20 589.46 593.09 589.52 592.99 589.58 592.88 589.64 592.77 589.71 592.67 589.77 592.56 589.83 592.45 589.89 592.35 589.95 592.24 590.01 592.13 590.08 592.03 590.14 591.92 590.20 591.82 590.26 591.71 590.32 591.60 590.38 591.50 590.45 591.39 590.51 591.28 590.57 591.18 590.63 591.07 590.69 590.96 590.76 590.86 590.82 590.75 590.88 590.64 590.94 590.54 591.00 590.43 591.06 590.32 591.13 590.22 591.19 590.11 591.25 590.00 591.31 589.90 591.37 589.79 591.44 589.69 591.50 589.58 591.56 589.47 591.62 589.37 591.69 589.26 591.75 589.15 591.81 589.05 591.87 588.94 591.93 588.83 592.00 588.73 592.06 588.62 592.12 588.51 592.18 588.41 592.24 588.30 592.31 588.19 592.37 588.09 592.43 587.98 592.49 587.87 592.56 587.77 592.62 587.66 592.68 587.55 592.74 587.45 592.81 587.34 592.87 587.23 592.93 587.13 592.99 587.02 593.06 586.92 593.12 586.81 593.18 586.70 593.24 586.60 593.30 586.49 593.37 586.38 593.43 586.28 593.49 586.17 593.55 586.06 593.62 585.96 593.68 585.85 593.74 585.74 593.80 585.64 593.87 585.53 593.93 585.42 593.99 585.32 594.06 585.21 594.12 585.10 594.18 585.00 594.24 584.89 594.31 584.78 594.37 584.68 594.43 584.57 594.49 584.47 594.56 584.36 594.62 584.25 594.68 584.15 594.75 584.04 594.81 583.93 594.87 583.83 594.93 583.72 595.00 583.61 595.06 583.51 595.12 583.40 595.18 583.29 595.25 583.19 595.31 583.08 595.37 582.97 595.44 582.87 595.50 582.76 595.56 582.65 595.63 582.55 595.69 582.44 595.75 582.33 595.81 582.23 595.88 582.12 595.94 582.02 596.00 581.91 596.07 581.80 596.13 581.70 596.19 581.59 596.26 581.48 596.32 581.38 596.38 581.27 596.44 581.16 596.51 581.06 596.57 580.95 596.63 580.84 596.70 580.74 596.76 580.63 596.82 580.52 596.89 580.42 596.95 580.31 597.01 580.20 597.08 580.10 597.14 579.99 597.20 579.89 597.27 579.78 597.33 579.67 597.39 579.57 597.46 579.46 597.52 579.35 597.58 579.25 597.65 579.14 597.71 579.03 597.77 578.93 597.84 578.82 597.90 578.71 597.96 578.61 598.03 578.50 598.09 578.39 598.15 578.29 598.22 578.18 598.28 578.07 598.34 577.97 598.41 577.86 598.47 577.76 598.53 577.65 598.60 577.54 598.66 577.44 598.73 577.33
M610.54 656.68A203.61 28.50 122.55 0 1 561.25 714.07 
M724.26 403.72A204.20 28.57 122.55 0 1 746.74 385.38 
M536.53 171.31A193.55 26.63 40.13 0 1 507.60 144.71 
M735.22 310.15A204.13 28.59 40.03 0 1 708.27 299.38 
M459.84 52.06A204.19 28.60 40.03 0 1 524.04 92.06 
M45.92 403.93A311.77 290.29 81.29 0 0 60.98 502.25 
M454.90 128.04A311.77 290.29 81.29 0 0 340.66 98.59 
M433.61 705.35A311.77 290.29 81.29 0 0 533.80 643.06 
M746.74 385.38A285.59 178.08 81.29 0 0 735.22 310.15 
M533.80 643.06A285.61 178.10 81.29 0 0 610.54 656.68 
M524.04 92.06A285.61 178.10 81.29 0 0 454.90 128.04 
" style="fill:none;stroke:#BB5037;stroke-opacity:1;stroke-width:20;stroke-linecap:round">
</path>
</svg>
<style>
@media (prefers-color-scheme: light) { :root { filter: none; } }
@media (prefers-color-scheme: dark) { :root { filter: invert(100%); } }
</style
></svg>