<?xml version="1.0" standalone="no"?>
<svg xmlns="http://www.w3.org/2000/svg" viewBox="-300 -300 600 600" width="600" height="600" style=""><path d="M88.36462035148038,-48.146770967377826L89.30610727599635,-45.91370708093955M52.28133849464848,-85.94878648415245L54.43422330753833,-84.83594385557508M87.35309058760265,-50.34908145773809L88.36462035148038,-48.146770967377826M54.43422330753833,-84.83594385557508L56.550967885619166,-83.65566772859535M86.27250970568652,-52.51843043749645L87.35309058760265,-50.34908145773809M56.550967885619166,-83.65566772859535L58.629461290764795,-82.40911750469287M85.12395004218841,-54.65264686106345L86.27250970568652,-52.51843043749645M58.629461290764795,-82.40911750469287L60.667611914776636,-81.0975388515931M83.90855937847711,-56.74958819581396L85.12395004218841,-54.65264686106345M60.667611914776636,-81.0975388515931L62.66338035292047,-79.72223401632561M82.62754503263858,-58.80715434227147L83.90855937847711,-56.74958819581396M62.66338035292047,-79.72223401632561L64.61476808280638,-78.28458278511931M81.28217622114789,-60.823286213928824L82.62754503263858,-58.80715434227147M64.61476808280638,-78.28458278511931L66.51982535273152,-76.78600754767146M79.8737966830214,-62.79596374466411L81.28217622114789,-60.823286213928824M66.51982535273152,-76.78600754767146L68.37662827880935,-75.2280047011998M78.40381714706993,-64.72320615942768L79.8737966830214,-62.79596374466411M68.37662827880935,-75.2280047011998L70.18333162119306,-73.61212943299525M76.87370242582469,-66.60308835903558L78.40381714706993,-64.72320615942768M70.18333162119306,-73.61212943299525L71.93811588687346,-71.94001046470113M75.28497756085184,-68.43373278037951L76.87370242582469,-66.60308835903558M71.93811588687346,-71.94001046470113L73.63923568063727,-70.21329568922087M73.63923568063727,-70.21329568922087L75.28497756085184,-68.43373278037951M2.526525570427743,103.61593367616854L0.2724447187500596,104.7976433195115M-104.40898059768452,-9.79867226931485L-103.02862774374827,-11.936924743151618M0.2724447187500596,104.7976433195115L-2.018187675408608,105.90821422923025M-105.72179304884598,-7.617596198387651L-104.40898059768452,-9.79867226931485M-2.018187675408608,105.90821422923025L-4.343122169998866,106.94648918814922M-106.96568517364847,-5.395830834710437L-105.72179304884598,-7.617596198387651M-4.343122169998866,106.94648918814922L-6.700071756489993,107.91136633025825M-108.13936714399642,-3.135556624968165L-106.96568517364847,-5.395830834710437M-6.700071756489993,107.91136633025825L-9.086712856625939,108.8018297327165M-109.24162460879552,-0.8389963555236403L-108.13936714399642,-3.135556624968165M-9.086712856625939,108.8018297327165L-11.50068746580874,109.61693424351145M-110.27128052753913,1.491589075780546L-109.24162460879552,-0.8389963555236403M-11.50068746580874,109.61693424351145L-13.939608015379191,110.35579140168745M-111.22724986812847,3.8538996623568065L-110.27128052753913,1.491589075780546M-13.939608015379191,110.35579140168745L-16.401055145159653,111.01760674262815M-112.10853260720673,6.245598485716774L-111.22724986812847,3.8538996623568065M-16.401055145159653,111.01760674262815L-18.88258653640085,111.60166667076834M-112.91418229604552,8.664315398032555L-112.10853260720673,6.245598485716774M-18.88258653640085,111.60166667076834L-21.38173215241086,112.10732155391592M-113.6433240672233,11.107652944182629L-112.91418229604552,8.664315398032555M-21.38173215241086,112.10732155391592L-23.896000732535672,112.53400221636448M-114.29519150116592,13.573177680369488L-113.6433240672233,11.107652944182629M-23.896000732535672,112.53400221636448L-26.422886597931047,112.8812210657157M-114.86905183793958,16.058438139298318L-114.29519150116592,13.573177680369488M-26.422886597931047,112.8812210657157L-28.959861297965755,113.1485868424M-115.36428294091887,18.560953580239158L-114.86905183793958,16.058438139298318M-28.959861297965755,113.1485868424L-31.504384572588734,113.3357587223576M-115.78034310868722,21.078224839969227L-115.36428294091887,18.560953580239158M-31.504384572588734,113.3357587223576L-34.053908023282524,113.44250837912843M-116.11673919384845,23.60773116566274L-115.78034310868722,21.078224839969227M-34.053908023282524,113.44250837912843L-36.60587087728145,113.46865970892163M-116.37309238687946,26.146940610298955L-116.11673919384845,23.60773116566274M-36.60587087728145,113.46865970892163L-39.15770732325034,113.41414065240579M-116.54908882272763,28.693304505784774L-116.37309238687946,26.146940610298955M-39.15770732325034,113.41414065240579L-41.70685003755853,113.27894756523948M-116.64450481881094,31.24426243806938L-116.54908882272763,28.693304505784774M-41.70685003755853,113.27894756523948L-44.250727303296614,113.06318217056919M-116.6591847388608,33.79725231514983L-116.64450481881094,31.24426243806938M-44.250727303296614,113.06318217056919L-46.7867781973746,112.76699875796041M-116.59307859974118,36.349697010775095L-116.6591847388608,33.79725231514983M-46.7867781973746,112.76699875796041L-49.31243444934104,112.3906653438664M-116.44619708508225,38.89902542288049L-116.59307859974118,36.349697010775095M-49.31243444934104,112.3906653438664L-51.825147445841786,111.93450307511219M-116.2186426333814,41.44266699998261L-116.44619708508225,38.89902542288049M-51.825147445841786,111.93450307511219L-54.322374584637245,111.39893203254984M-115.91060986981388,43.97804716212204L-116.2186426333814,41.44266699998261M-54.322374584637245,111.39893203254984L-56.80158231256138,110.7844553098547M-115.52237102172903,46.50260363081395L-115.91060986981388,43.97804716212204M-56.80158231256138,110.7844553098547L-59.2602544460827,110.09166091569836M-115.05426675972255,49.013774319666425L-115.52237102172903,46.50260363081395M-59.2602544460827,110.09166091569836L-61.69590549745122,109.32120511738313M-114.50674022437508,51.50902461216169L-115.05426675972255,49.013774319666425M-61.69590549745122,109.32120511738313L-64.10605625817385,108.47382767284515M-113.8803186160398,53.985816136474234L-114.50674022437508,51.50902461216169M-64.10605625817385,108.47382767284515L-66.48825678280649,107.55036841622452M-113.17558679603057,56.441643377934234L-113.8803186160398,53.985816136474234M-66.48825678280649,107.55036841622452L-68.84009250803706,106.55172775551085M-112.3932432642335,58.87400082141564L-113.17558679603057,56.441643377934234M-68.84009250803706,106.55172775551085L-71.15916140086038,105.47888262765319M-111.53403764694835,61.28042899776243L-112.3932432642335,58.87400082141564M-71.15916140086038,105.47888262765319L-73.44311201509396,104.33290258643316M-110.59882795561515,63.6584800304565L-111.53403764694835,61.28042899776243M-73.44311201509396,104.33290258643316L-75.6896103166108,103.11491627337304M-109.58852046193486,66.0057308675058L-110.59882795561515,63.6584800304565M-75.6896103166108,103.11491627337304L-77.89638201873717,101.82614502630067M-108.5041393360638,68.31979789769144L-109.58852046193486,66.0057308675058M-77.89638201873717,101.82614502630067L-80.06117077146466,100.46787141031504M-107.34674923446116,70.5983234071957L-108.5041393360638,68.31979789769144M-80.06117077146466,100.46787141031504L-82.18177156084678,99.0414599458535M-106.11750324932763,72.8389932460903L-107.34674923446116,70.5983234071957M-82.18177156084678,99.0414599458535L-84.2560289459236,97.54833790008584M-104.81764839962392,75.03952355599787L-106.11750324932763,72.8389932460903M-84.2560289459236,97.54833790008584L-86.28183016176419,95.99002090003403M-103.4484797104671,77.1976787515467L-104.81764839962392,75.03952355599787M-86.28183016176419,95.99002090003403L-88.25711174088295,94.36806386577153M-102.01138039652946,79.31125696048026L-103.4484797104671,77.1976787515467M-88.25711174088295,94.36806386577153L-90.17986267715723,92.68411030767768M-100.50779758988583,81.37811989040682L-102.01138039652946,79.31125696048026M-90.17986267715723,92.68411030767768L-92.04813728660788,90.93986500099768M-98.93925058564164,83.39615652161942L-100.50779758988583,81.37811989040682M-92.04813728660788,90.93986500099768L-93.86001885880465,89.13709072489489M-97.30732107132596,85.36331899185043L-98.93925058564164,83.39615652161942M-93.86001885880465,89.13709072489489L-95.61367152710345,87.27761783696603M-95.61367152710345,87.27761783696603L-97.30732107132596,85.36331899185043M65.10940464189679,-57.15351953031225L67.64318721775423,-56.26333492989434M67.64318721775423,-56.26333492989434L70.14866176390464,-55.294015864574696M70.14866176390464,-55.294015864574696L72.62334057811218,-54.24644882197454M72.62334057811218,-54.24644882197454L75.06476321549115,-53.12160256645133M75.06476321549115,-53.12160256645133L77.47050506496286,-51.92050923959709M77.47050506496286,-51.92050923959709L79.83816122692903,-50.644292412269564M62.50509104733111,-61.98892201269737L63.16797531592657,-59.38225622412695M79.83816122692903,-50.644292412269564L82.16536999540449,-49.294146556782735M61.76074783919337,-64.57437169982227L62.50509104733111,-61.98892201269737M82.16536999540449,-49.294146556782735L84.44979042673552,-47.87133530610017M60.93561244258464,-67.13603882886757L61.76074783919337,-64.57437169982227M84.44979042673552,-47.87133530610017L86.68913573527931,-46.37719951320029M60.03042549029691,-69.67139065197055L60.93561244258464,-67.13603882886757M-2.5846917339619346,99.09359407244018L-4.931214477094013,97.77312441537416M86.68913573527931,-46.37719951320029L88.88116195782442,-44.81316184687587M59.046008945768584,-72.1779033715076L60.03042549029691,-69.67139065197055M-0.19725771986412713,100.34018325281464L-2.5846917339619346,99.09359407244018M63.46899339919615,-57.4895969733596L63.559677641429566,-57.63115494624535M88.88116195782442,-44.81316184687587L91.02364361891146,-43.18070546895004M57.98326511663928,-74.65308847624067L59.046008945768584,-72.1779033715076M2.2287588759900436,101.51159003608946L-0.19725771986412713,100.34018325281464M91.02364361891146,-43.18070546895004L93.11443213245678,-41.481388466969534M56.84317845435906,-77.09448231775L57.98326511663928,-74.65308847624067M4.6909885082152565,102.606602034053L2.2287588759900436,101.51159003608946M93.11443213245678,-41.481388466969534L95.1514049151868,-39.71683224922548M55.62680479135398,-79.49963989790122L56.84317845435906,-77.09448231775M7.187020874549393,103.62405634340357L4.6909885082152565,102.606602034053M95.1514049151868,-39.71683224922548L97.13249049284927,-37.888741327539876M54.33527805577891,-81.86615641979874L55.62680479135398,-79.49963989790122M9.714407626027201,104.56288063796121L7.187020874549393,103.62405634340357M-97.60846209077894,-3.28707302807054L-98.71670692064298,-5.745186339325339M97.13249049284927,-37.888741327539876L99.05568906570723,-35.99886765384116M-97.00320195093272,-2.0260891683031814L-95.84439511827642,0.08894814297858565M52.96982005471001,-84.19166152880145L54.33527805577891,-81.86615641979874M12.270665770393261,105.42207692918014L9.714407626027201,104.56288063796121M-98.71670692064298,-5.745186339325339L-99.74761341414258,-8.237525793250176M99.05568906570723,-35.99886765384116L100.91903061491833,-34.04904321194591M51.531710052187535,-86.47382604536634L52.96982005471001,-84.19166152880145M14.85327888510078,106.20072244013036L12.270665770393261,105.42207692918014M100.91903061491833,-34.04904321194591L102.7206172044563,-32.04114800960697M-99.74761341414258,-8.237525793250176L-100.70009075538395,-10.76165267281667M50.022310399778284,-88.71034493749912L51.531710052187535,-86.47382604536634M17.459699317628985,106.89798608934312L14.85327888510078,106.20072244013036M102.7206172044563,-32.04114800960697L104.45861095177236,-29.97714116709116M-100.70009075538395,-10.76165267281667L-101.57313320639537,-13.315094511792546M48.443061623683484,-90.89896917671037L50.022310399778284,-88.71034493749912M20.087352811622228,107.51309583432355L17.459699317628985,106.89798608934312M104.45861095177236,-29.97714116709116L106.13121726652402,-27.85902571228726M-101.57313320639537,-13.315094511792546L-102.36580457192765,-15.895344152508772M46.79546734307091,-93.03747873017382L48.443061623683484,-90.89896917671037M22.733636444837487,108.04537225373112L20.087352811622228,107.51309583432355M106.13121726652402,-27.85902571228726L107.7367213879664,-25.688872314916182M-102.36580457192765,-15.895344152508772L-103.07726212637742,-18.49986573287659M45.081103303712496,-95.12372178425228L46.79546734307091,-93.03747873017382M25.39593024701978,108.49422040481558L22.733636444837487,108.04537225373112M107.7367213879664,-25.688872314916182L109.27346331921625,-23.468798697332804M-103.07726212637742,-18.49986573287659L-103.70671670172464,-21.12609198320172M43.30162294383471,-97.15557336046419L45.081103303712496,-95.12372178425228M28.071587547819863,108.85913055308856L25.39593024701978,108.49422040481558M109.27346331921625,-23.468798697332804L110.73986390134131,-21.200988236348852M-103.70671670172464,-21.12609198320172L-104.25348131058081,-23.771431234089462M30.757946315065436,109.13966975786185L28.071587547819863,108.85913055308856M41.45874112477336,-99.13098313503858L43.30162294383471,-97.15557336046419M110.73986390134131,-21.200988236348852L112.13439965349801,-18.887664431423676M-104.25348131058081,-23.771431234089462L-104.71694742691197,-26.43326874416766M33.45233251999285,109.33549078003894L30.757946315065436,109.13966975786185M39.554233724094196,-101.04791564163047L41.45874112477336,-99.13098313503858M112.13439965349801,-18.887664431423676L113.45561778438739,-16.53110646362672M-104.71694742691197,-26.43326874416766L-105.0965840442417,-29.108968149430613M36.152054148449125,109.44633233869637L33.45233251999285,109.33549078003894M37.58995081580871,-102.90443480407937L39.554233724094196,-101.04791564163047M113.45561778438739,-16.53110646362672L114.70215159819811,-14.133637462387428M-105.0965840442417,-29.108968149430613L-105.39193907430649,-31.795875107124385M38.85441559535988,109.47202792459247L36.152054148449125,109.44633233869637M-7.788368409704922,95.96379973638703L-9.724482455227342,94.46096321311336M35.56780268877482,-104.69863139915559L37.58995081580871,-102.90443480407937M114.70215159819811,-14.133637462387428L115.87268029512929,-11.697631088292308M-105.39193907430649,-31.795875107124385L-105.60266314281981,-34.49132010994121M41.55671034332387,109.41247271780321L38.85441559535988,109.47202792459247M33.48976013695757,-106.42866834384115L35.56780268877482,-104.69863139915559M115.87268029512929,-11.697631088292308L116.96598466810735,-9.225495152803413M-105.60266314281981,-34.49132010994121L-105.7284695102852,-37.19261904815897M44.25622974669328,109.26768182382344L41.55671034332387,109.41247271780321M116.96598466810735,-9.225495152803413L117.98092588988636,-6.719687035879326M31.357850075717252,-108.0927703670293L33.48976013695757,-106.42866834384115M-105.7284695102852,-37.19261904815897L-105.76916571603323,-39.89708110633934M46.95026302887361,109.03773270173649L44.25622974669328,109.26768182382344M117.98092588988636,-6.719687035879326L118.91641221735554,-4.18269640315001M29.174165990849357,-109.6892303882272L31.357850075717252,-108.0927703670293M49.636103041399004,108.72279880638708L46.95026302887361,109.03773270173649M-105.76916571603323,-39.89708110633934L-105.72465525794203,-42.60200612687737M118.91641221735554,-4.18269640315001L119.77145874876975,-1.6170489158324928M26.94084918006041,-111.21639379530279L29.174165990849357,-109.6892303882272M52.31104593070716,108.32314115225032L49.636103041399004,108.72279880638708M-105.72465525794203,-42.60200612687737L-105.59490424380047,-45.30468697611904M119.77145874876975,-1.6170489158324928L120.54515093800285,0.9747009231271657M24.660093278575218,-112.67267677368899L26.94084918006041,-111.21639379530279M54.97239904073052,107.8391088288007L52.31104593070716,108.32314115225032M120.54515093800285,0.9747009231271657L121.23665658423086,3.589956382398297M-105.59490424380047,-45.30468697611904L-105.37999818200527,-48.00242244554857M22.33415158834693,-114.05657711911047L24.660093278575218,-112.67267677368899M57.61747794870976,107.27113066205354L54.97239904073052,107.8391088288007M63.23911300825514,-57.21964826804332L63.46899339919615,-57.4895969733596M121.23665658423086,3.589956382398297L121.84523634871064,6.226108739999914M-105.37999818200527,-48.00242244554857L-105.08007741364985,-50.69250263267203M60.24360617562915,106.61972389003544L57.61747794870976,107.27113066205354M19.965321913665438,-115.3666615168361L22.33415158834693,-114.05657711911047M121.84523634871064,6.226108739999914L122.37021569395819,8.880515093424636M-105.08007741364985,-50.69250263267203L-104.69538661174884,-53.3722242308031M62.84812765643165,105.88549455615171L60.24360617562915,106.61972389003544M17.555942883049337,-116.60155131449092L19.965321913665438,-115.3666615168361M122.37021569395819,8.880515093424636L122.81102153273098,11.550512315851254M-104.69538661174884,-53.3722242308031L-104.22624813802724,-56.038898780916384M65.42840884470392,105.06914551497668L62.84812765643165,105.88549455615171M122.81102153273098,11.550512315851254L123.16717249820549,14.23341928117949M15.108411263228094,-117.75996221717996L17.555942883049337,-116.60155131449092M-95.84439511827642,0.08894814297858565L-94.4539993830689,2.2093219728221367M67.98183360662375,104.17144370838818L65.42840884470392,105.06914551497668M-104.22624813802724,-56.038898780916384L-103.67307342433742,-58.68983676476623M123.16717249820549,14.23341928117949L123.43824812946892,16.926537385729418M12.625152476529195,-118.84067793153724L15.108411263228094,-117.75996221717996M70.50581738184225,103.1932532483727L67.98183360662375,104.17144370838818M123.43824812946892,16.926537385729418L123.62393174048032,19.62715415858288M-103.67307342433742,-58.68983676476623L-103.0363765090257,-61.32237047634783M72.99778871734071,102.13551940145494L70.50581738184225,103.1932532483727M10.108640701628241,-119.84256728020375L12.625152476529195,-118.84067793153724M123.62393174048032,19.62715415858288L123.72399864041664,22.332551821864328M-103.0363765090257,-61.32237047634783L-102.31672682892784,-63.93383484916652M75.45522716641773,100.9992677909932L72.99778871734071,102.13551940145494M7.561383099350221,-120.76456369748522L10.108640701628241,-119.84256728020375M123.72399864041664,22.332551821864328L123.73830585878251,25.040000119617563M77.87562073144349,99.78562109137884L75.45522716641773,100.9992677909932M-102.31672682892784,-63.93383484916652L-101.51480557853203,-66.52160061264975M123.73830585878251,25.040000119617563L123.66679926378384,27.746759547695554M4.985923378124753,-121.60570260954954L7.561383099350221,-120.76456369748522M80.2565260578058,98.49576001067416L77.87562073144349,99.78562109137884M123.66679926378384,27.746759547695554L123.50951482411926,30.450101490208556M-101.51480557853203,-66.52160061264975L-100.63136467849326,-69.08304003056696M82.59549761070761,97.13095957215116L80.2565260578058,98.49576001067416M2.384834022969221,-122.36507802328396L4.985923378124753,-121.60570260954954M123.50951482411926,30.450101490208556L123.26656674736657,33.14728372231588M-100.63136467849326,-69.08304003056696L-99.6672514429008,-71.61556774657035M84.89017168363044,95.69257913408654L82.59549761070761,97.13095957215116M123.26656674736657,33.14728372231588L122.93817475916073,35.835582640153014M-0.23927770675669358,-123.04188323499388L2.384834022969221,-122.36507802328396M87.13819830686457,94.18202307199628L84.89017168363044,95.69257913408654M122.93817475916073,35.835582640153014L122.52463775825034,38.5122737585546M-99.6672514429008,-71.61556774657035L-98.62337646004248,-74.11660897435172M89.3372959663659,92.60081951440282L87.13819830686457,94.18202307199628M-2.8837821249587856,-123.63538625993716L-0.23927770675669358,-123.04188323499388M122.52463775825034,38.5122737585546L122.02635262397293,41.1746433724523M91.48521080621353,90.95053428547136L89.3372959663659,92.60081951440282M-98.62337646004248,-74.11660897435172L-97.50076969679526,-76.58362992741333M122.02635262397293,41.1746433724523L121.44378499113286,43.81999086158059M-5.546024474326594,-124.1449527531788L-2.8837821249587856,-123.63538625993716M93.57976787437958,89.2328233008172L91.48521080621353,90.95053428547136M121.44378499113286,43.81999086158059L120.77750411456303,46.44562833133374M-97.50076969679526,-76.58362992741333L-96.30049827953694,-79.01412666258523M95.61881020554762,87.44939710569504L93.57976787437958,89.2328233008172M120.77750411456303,46.44562833133374L120.02817497542269,49.04889766382733M-8.223331660033498,-124.57000892652883L-5.546024474326594,-124.1449527531788M97.60027887269982,85.60205576039785L95.61881020554762,87.44939710569504M120.02817497542269,49.04889766382733L119.19651999366525,51.627152058993154M99.52214323412775,83.6926616369821L97.60027887269982,85.60205576039785M-96.30049827953694,-79.01412666258523L-95.02374971927833,-81.40562481277871M119.19651999366525,51.627152058993154L118.28337355300467,54.17777499110588M101.38244904811354,81.72312377572287L99.52214323412775,83.6926616369821M118.28337355300467,54.17777499110588L117.2896433254992,56.69817555925763M-10.913003299121453,-124.91009409082388L-8.223331660033498,-124.57000892652883M103.17929267571688,79.69543927031035L101.38244904811354,81.72312377572287M117.2896433254992,56.69817555925763L116.2163302668062,59.185794442784264M104.91084036047152,77.61165931686409L103.17929267571688,79.69543927031035M-95.02374971927833,-81.40562481277871L-93.67176505771194,-83.75569304950662M116.2163302668062,59.185794442784264L115.06450296452304,61.63810498562833M106.57534488203792,75.47388096444692L104.91084036047152,77.61165931686409M115.06450296452304,61.63810498562833L113.83531787043096,64.05261559845091M108.17110010177214,73.28426439578496L106.57534488203792,75.47388096444692M113.83531787043096,64.05261559845091L112.53003227915806,66.42686843542717M-13.612334418017927,-125.16482934761322L-10.913003299121453,-124.91009409082388M109.69648611207383,71.04503738898293L108.17110010177214,73.28426439578496M112.53003227915806,66.42686843542717L111.14995696646861,68.75846609651083M111.14995696646861,68.75846609651083L109.69648611207383,71.04503738898293M-93.67176505771194,-83.75569304950662L-92.24588831793584,-86.06193462165633M-16.318604805576605,-125.33391302823773L-13.612334418017927,-125.16482934761322M-92.24588831793584,-86.06193462165633L-90.74750701381284,-88.32201382579888M-19.029077727287422,-125.41713534212529L-16.318604805576605,-125.33391302823773M-90.74750701381284,-88.32201382579888L-89.1781226562961,-90.53361439055708M-21.74102308078587,-125.41437492604813L-19.029077727287422,-125.41713534212529M-89.1781226562961,-90.53361439055708L-87.5392858507588,-92.69448524104888M-9.724482455227342,94.46096321311336L-11.638801509126932,92.73237691672851M-24.451691962436776,-125.32560782285849L-21.74102308078587,-125.41437492604813M-87.5392858507588,-92.69448524104888L-85.83262683653867,-94.80241596659657M-27.158340422438688,-125.1508888032428L-24.451691962436776,-125.32560782285849M-85.83262683653867,-94.80241596659657L-84.05985851889103,-96.85527046292593M-29.85823865694237,-124.89037324532072L-27.158340422438688,-125.1508888032428M-84.05985851889103,-96.85527046292593L-82.22273991006907,-98.85093799973295M-32.54863986165647,-124.54429040941255L-29.85823865694237,-124.89037324532072M-82.22273991006907,-98.85093799973295L-80.32312149743703,-100.78739575686414M-35.22682410635362,-124.11296457338862L-32.54863986165647,-124.54429040941255M-80.32312149743703,-100.78739575686414L-78.3629125355758,-102.66264959709906M-37.890075742615316,-123.596817489014L-35.22682410635362,-124.11296457338862M-78.3629125355758,-102.66264959709906L-76.34407292744663,-104.4748024131535M-40.53569104328882,-122.99634889548132L-37.890075742615316,-123.596817489014M-76.34407292744663,-104.4748024131535L-74.26863923703313,-106.22199106950735M-43.16098830126568,-122.31214905078721L-40.53569104328882,-122.99634889548132M-74.26863923703313,-106.22199106950735L-72.13870349833537,-107.90243671185006M-45.76330237235091,-121.54489426607088L-43.16098830126568,-122.31214905078721M-72.13870349833537,-107.90243671185006L-69.95641795000515,-109.51442742244578M-48.33999066423003,-120.6953588719557L-45.76330237235091,-121.54489426607088M-69.95641795000515,-109.51442742244578L-67.72398066027762,-111.05632339575193M-50.888445372810004,-119.76438113623738L-48.33999066423003,-120.6953588719557M-67.72398066027762,-111.05632339575193L-65.44365779910493,-112.52654578770495M-53.40606574261844,-118.7529025667961L-50.888445372810004,-119.76438113623738M-65.44365779910493,-112.52654578770495L-63.11775383129299,-113.9235990240348M-55.89031123313461,-117.66194494658289L-53.40606574261844,-118.7529025667961M-63.11775383129299,-113.9235990240348L-60.74861948124111,-115.24606460760195M-58.33865460917047,-116.49260193864997L-55.89031123313461,-117.66194494658289M-60.74861948124111,-115.24606460760195L-58.33865460917047,-116.49260193864997M-94.4539993830689,2.2093219728221367L-92.83772262629493,4.325518555794846M62.86281476915809,-56.81486737588157L63.23911300825514,-57.21964826804332M-11.638801509126932,92.73237691672851L-13.522778621598075,90.78589382754173M-92.83772262629493,4.325518555794846L-91.00300120799491,6.428048722809387M62.33327644860483,-56.26920037773996L62.86281476915809,-56.81486737588157M-13.522778621598075,90.78589382754173L-15.368121932427973,88.6309802683902M-91.00300120799491,6.428048722809387L-88.95889327349776,8.507560472068974M-15.368121932427973,88.6309802683902L-17.166899317510747,86.27862088734503M61.64419974239286,-55.57709393641656L62.33327644860483,-56.26920037773996M-88.95889327349776,8.507560472068974L-86.71598747024682,10.55495527359195M-17.166899317510747,86.27862088734503L-18.911629678865367,83.74115124355383M60.78995889084367,-54.73363158119249L61.64419974239286,-55.57709393641656M-86.71598747024682,10.55495527359195L-84.28623884580215,12.561496336113466M-18.911629678865367,83.74115124355383L-20.595365314894135,81.0320578172429M-84.28623884580215,12.561496336113466L-81.68277196369941,14.5189101022446M59.765743506821806,-53.734663911719366L60.78995889084367,-54.73363158119249M-20.595365314894135,81.0320578172429L-22.21176414864813,78.16581376321044M-81.68277196369941,14.5189101022446L-78.91971927511595,16.4194740878951M-22.21176414864813,78.16581376321044L-23.75514060535427,75.15767129144706M-78.91971927511595,16.4194740878951L-76.0120154049735,18.256086060276626M58.5677050673162,-52.576940750056984L59.765743506821806,-53.734663911719366M-23.75514060535427,75.15767129144706L-25.22052172133897,72.02342176621914M-76.0120154049735,18.256086060276626L-72.97515997068945,20.02234102737473M-25.22052172133897,72.02342176621914L-26.603659248130192,68.77923238700407M-72.97515997068945,20.02234102737473L-69.82505456002616,21.71255642152869M57.193110650619126,-51.258250974022374L58.5677050673162,-52.576940750056984M-26.603659248130192,68.77923238700407L-27.901056280643605,65.44140261227109M-69.82505456002616,21.71255642152869L-66.57776106858057,23.32181868020627M-27.901056280643605,65.44140261227109L-29.1099675116082,62.026180859370385M-66.57776106858057,23.32181868020627L-63.24931897523053,24.845997595306493M-29.1099675116082,62.026180859370385L-30.228373479642876,58.54961125589733M55.64047844927694,-49.77754363788343L57.193110650619126,-51.258250974022374M-63.24931897523053,24.845997595306493L-59.85559143783953,26.281731362109383M-30.228373479642876,58.54961125589733L-31.254978099443615,55.027312849742756M-59.85559143783953,26.281731362109383L-56.412045918666266,27.62644108536233M-31.254978099443615,55.027312849742756L-32.189152493045995,51.47439136306091M-56.412045918666266,27.62644108536233L-52.933663927454056,28.878279161850134M-32.189152493045995,51.47439136306091L-33.03091198489766,47.90527590547458M-52.933663927454056,28.878279161850134L-49.43477830286843,30.03611797018289M-33.03091198489766,47.90527590547458L-33.78085483239865,44.333632290060905M53.90971995891245,-48.13505522528872L55.64047844927694,-49.77754363788343M-49.43477830286843,30.03611797018289L-45.92898472759934,31.09949297915546M-33.78085483239865,44.333632290060905L-34.44011814603144,40.77228526623321M-45.92898472759934,31.09949297915546L-42.42906323459315,32.06856289327725M-34.44011814603144,40.77228526623321L-35.01031129191861,37.233146887138375M-35.49347164175862,33.727178295452575L-33.93450710323639,32.345419397719176M-35.01031129191861,37.233146887138375L-35.49347164175862,33.727178295452575M-38.94690466283587,32.944046237692625L-35.49347164175862,33.727178295452575M-42.42906323459315,32.06856289327725L-38.94690466283587,32.944046237692625M52.002242936590534,-46.332400875961106L53.90971995891245,-48.13505522528872M-33.93450710323639,32.345419397719176L-32.24275209449863,30.841264861882035M-32.24275209449863,30.841264861882035L-30.416297871226256,29.21275689919681M49.92105544801517,-44.37266527501918L52.002242936590534,-46.332400875961106M-30.416297871226256,29.21275689919681L-28.453995874112575,27.458620780936116M47.67084152452329,-42.26046726862222L49.92105544801517,-44.37266527501918M-28.453995874112575,27.458620780936116L-26.355548341900757,25.578348581731735M45.25797986749614,-40.00197268879151L47.67084152452329,-42.26046726862222M-26.355548341900757,25.578348581731735L-24.121625368865022,23.572308214067508M42.690560529694274,-37.60490447193769L45.25797986749614,-40.00197268879151M-24.121625368865022,23.572308214067508L-21.753958081835563,21.44183038503298M39.97834612241748,-35.078501650496996L42.690560529694274,-37.60490447193769M-21.753958081835563,21.44183038503298L-19.255457808498246,19.189320003953267M-19.255457808498246,19.189320003953267L-16.630267459263358,16.818306230235645M37.13270246761946,-32.43345094992387L39.97834612241748,-35.078501650496996M-16.630267459263358,16.818306230235645L-13.8838816102608,14.33355508806517M34.16647508150641,-29.68176904851625L37.13270246761946,-32.43345094992387M-13.8838816102608,14.33355508806517L-11.023156944796533,11.741083087366604M31.093854990491582,-26.83667448752814L34.16647508150641,-29.68176904851625M-11.023156944796533,11.741083087366604L-8.056371495102335,9.048215165375632M27.930169840390178,-23.912393540315055L31.093854990491582,-26.83667448752814M-8.056371495102335,9.048215165375632L-4.993235927367901,6.263598988116635M24.691692564897433,-20.923980630869263L27.930169840390178,-23.912393540315055M-4.993235927367901,6.263598988116635L-1.844841775257895,3.397162311288498M21.39538871712261,-17.88708523884677L24.691692564897433,-20.923980630869263M-1.844841775257895,3.397162311288498L1.3763560949224691,0.460100884000472M18.058664267728712,-14.817719022924722L21.39538871712261,-17.88708523884677M1.3763560949224691,0.460100884000472L4.656655582729233,-2.535223240102369M14.699113611959017,-11.732024356206269L18.058664267728712,-14.817719022924722M4.656655582729233,-2.535223240102369L7.981223152128874,-5.575383368088459M11.334243175477402,-8.646021622596718L14.699113611959017,-11.732024356206269M7.981223152128874,-5.575383368088459L11.334243175477402,-8.646021622596718" style="fill:none;stroke:rgb(51,51,51);stroke-opacity:1;stroke-width:4;stroke-linecap:round"/></svg>