<?xml version="1.0" encoding="UTF-8" standalone="no"?>
<svg
   xmlns:dc="http://purl.org/dc/elements/1.1/"
   xmlns:cc="http://creativecommons.org/ns#"
   xmlns:rdf="http://www.w3.org/1999/02/22-rdf-syntax-ns#"
   xmlns:svg="http://www.w3.org/2000/svg"
   xmlns="http://www.w3.org/2000/svg"
   xmlns:sodipodi="http://sodipodi.sourceforge.net/DTD/sodipodi-0.dtd"
   xmlns:inkscape="http://www.inkscape.org/namespaces/inkscape"
   viewBox="-300 -300 600 600"
   width="600"
   height="600"
   style=""
   version="1.1"
   id="svg58"
   sodipodi:docname="3-3-3.svg"
   inkscape:version="1.0.2 (e86c8708, 2021-01-15)">
  <metadata
     id="metadata64">
    <rdf:RDF>
      <cc:Work
         rdf:about="">
        <dc:format>image/svg+xml</dc:format>
        <dc:type
           rdf:resource="http://purl.org/dc/dcmitype/StillImage" />
        <dc:title></dc:title>
      </cc:Work>
    </rdf:RDF>
  </metadata>
  <defs
     id="defs62" />
  <sodipodi:namedview
     pagecolor="#ffffff"
     bordercolor="#666666"
     borderopacity="1"
     objecttolerance="10"
     gridtolerance="10"
     guidetolerance="10"
     inkscape:pageopacity="0"
     inkscape:pageshadow="2"
     inkscape:window-width="1440"
     inkscape:window-height="792"
     id="namedview60"
     showgrid="false"
     inkscape:zoom="0.97333333"
     inkscape:cx="288.21807"
     inkscape:cy="300"
     inkscape:window-x="0"
     inkscape:window-y="25"
     inkscape:window-maximized="1"
     inkscape:current-layer="svg58" />
  <path
     d="m 190.12611,-94.525129 2.11024,5.005162 m -82.98699,-89.734263 4.82546,2.49431 m 73.78405,77.29856 2.26724,4.936231 m -76.05129,-82.234791 4.74445,2.64546 m 66.6176,69.79073 2.422,4.86237 m -69.0396,-74.6531 4.65872,2.79401 m 59.38451,62.21311 2.57437,4.78361 m -61.95888,-66.99672 4.56829,2.93976 m 52.09205,54.57328 2.72417,4.70007 m -54.81622,-59.27335 4.4733,3.0826 m 44.7475,46.87887 2.87125,4.61181 m -47.61875,-51.49068 4.37382,3.22233 m 37.35818,39.13761 3.0155,4.51893 m -40.37368,-43.65654 4.26998,3.35891 m 29.93147,31.35715 3.15673,4.42155 m -33.0882,-35.7787 4.16182,3.49208 m 22.47485,23.54537 3.2948,4.3197 m -25.76965,-27.86507 4.04953,3.62181 m 14.99574,15.71 3.42958,4.21356 m -18.42532,-19.92356 3.93316,3.74787 m 7.50162,7.85895 3.56096,4.10318 m -11.06258,-11.96213 3.81287,3.87024 m 0,0 3.68875,3.98871 M -2.2706275,245.63444 -7.3229037,248.28311 M -241.95491,-8.572045 l 3.09391,-4.79266 M -7.3229037,248.28311 -12.457107,250.77233 M -244.89744,-3.6834015 l 2.94253,-4.8886435 m 229.497803,259.344375 -5.211087,2.32719 M -247.68549,1.2964435 l 2.78805,-4.979845 m 227.229246,256.7829215 -5.282847,2.16266 M -250.31616,6.362602 l 2.63067,-5.0661585 m 224.734449,253.9657365 -5.349395,1.99588 M -252.78676,11.510091 l 2.4706,-5.147489 m 222.015724,250.895458 -5.410661,1.82697 M -255.09462,16.733845 l 2.30786,-5.223754 m 219.075663,247.574939 -5.466575,1.65607 M -257.23732,22.028707 l 2.1427,-5.294862 m 215.916948,244.007255 -5.51707,1.48338 M -259.21262,27.389439 l 1.9753,-5.360732 m 212.542578,240.195773 -5.562074,1.3091 M -261.0184,32.810729 l 1.80578,-5.42129 m 208.955804,236.144141 -5.601566,1.13337 M -262.65269,38.287205 l 1.63429,-5.476476 m 205.160018,231.856221 -5.635462,0.95636 M -264.11378,43.813409 l 1.46109,-5.526204 m 201.158846,227.336105 -5.663733,0.77825 M -265.40002,49.38385 l 1.28624,-5.570441 m 196.956203,222.588151 -5.686353,0.59927 m -193.66609,-212.007865 1.11,-5.609115 m 192.55609,217.61698 -5.70328,0.41953 m -188.89537,-206.785205 0.93256,-5.64219 m 187.96281,212.427395 -5.714472,0.23927 M -268.19658,66.304768 l 0.754,-5.669613 m 183.180898,207.024475 -5.719943,0.0586 M -268.77117,71.996102 l 0.57459,-5.691362 m 178.214955,201.41348 -5.719667,-0.12217 M -269.16564,77.703526 l 0.39447,-5.707396 m 173.069878,195.59992 -5.713628,-0.30303 m -167.96459,-183.8718 0.21387,-5.717694 m 167.75072,189.589494 -5.70182,-0.4836 m -162.29567,-177.665951 0.033,-5.722249 m 162.26276,183.3882 -5.68427,-0.66387 m -156.46322,-171.281054 -0.14817,-5.721027 m 156.61139,177.002081 -5.66099,-0.8435 m -150.47301,-164.72351 -0.32922,-5.714044 m 150.80223,170.437554 -5.63197,-1.02245 m -144.331,-157.99977 -0.51004,-5.70129 m 144.84104,163.70106 -5.59726,-1.20042 m -138.04333,-151.11657 -0.69041,-5.68278 m 138.73374,156.79935 -5.55688,-1.37729 m -131.61625,-144.08076 -0.8702,-5.65852 m 132.48645,149.73928 -5.51084,-1.55282 m -125.0562,-136.89942 -1.04921,-5.62852 m 126.10541,142.52794 -5.45925,-1.72689 m -118.36973,-129.5797 -1.22722,-5.59283 m 119.59695,135.17253 -5.40209,-1.89931 m -111.56358,-122.12893 -1.40406,-5.55146 m 112.96764,127.68039 -5.33944,-2.06983 M -261.6042,139.8984 l -1.57958,-5.50446 m 106.22414,120.0591 -5.27138,-2.23835 m -97.61965,-106.86442 -1.75353,-5.45187 m 99.37318,112.31629 -5.19794,-2.40466 m -90.49589,-99.06601 -1.92582,-5.39375 m 92.42171,104.45976 -5.11923,-2.56859 m -83.2805,-91.16728 -2.09616,-5.33014 m 85.37666,96.49742 -5.03528,-2.72998 m -75.98072,-83.1762 -2.2645,-5.2611 m 78.24522,88.4373 -4.94625,-2.88864 m -68.60395,-75.10083 -2.43052,-5.18673 m 71.03447,80.28756 -4.85213,-3.04442 m -61.15765,-66.94934 -2.59417,-5.10707 m 63.75182,72.05641 -4.7531,-3.19715 m -53.64934,-58.72997 -2.75521,-5.02222 m 56.40455,63.75219 -4.64922,-3.34667 m -46.08662,-50.45105 -2.9135,-4.93225 m 49.00012,55.3833 -4.54062,-3.4928 m -38.47717,-42.12098 -3.06883,-4.83727 m 41.546,46.95825 -4.42737,-3.63544 m -30.8287,-33.74819 -3.2211,-4.73735 m 34.0498,38.48554 -4.30963,-3.77439 m -23.14895,-25.34115 -3.37012,-4.63265 m 26.51907,29.9738 -4.18753,-3.90954 m -15.44569,-16.9084 -3.51573,-4.52321 m 18.96142,21.43161 -4.06115,-4.04072 m -7.72674,-8.4585 -3.6578,-4.40918 m 11.38454,12.86768 -3.93062,-4.16781 m 0,0 -3.79612,-4.29069 m 364.03939,-319.43596 5.67919,1.99524 m 0,0 5.61575,2.17263 m 0,0 5.54672,2.34801 m 0,0 5.47219,2.52121 m 0,0 5.39221,2.69213 m 0,0 5.30684,2.8605 m -38.85019,-25.42775 1.48578,5.84256 m 37.36441,19.58519 5.21618,3.02621 m -45.73473,-34.24897 1.66836,5.79501 m 44.06637,28.45396 5.12028,3.189073 m -52.70446,-43.179733 1.84945,5.74169 m 50.85501,37.438043 5.01925,3.348941 m -59.75259,-52.211394 2.02888,5.68272 m -142.373914,372.5856 -5.259475,-2.95968 m 205.357029,-323.097246 4.91319,3.505619 m -66.87224,-61.335093 2.20646,5.61808 M -8.3756907,238.2922 -13.726864,235.4981 m 148.052134,-350.96415 0.20326,-0.31729 m 56.75535,28.730133 4.80214,3.658973 m -74.05641,-70.541916 2.38203,5.54785 M -2.9380388,240.91778 -8.3756907,238.2922 M 196.08602,-83.394234 l 4.68627,3.808836 m -81.29806,-79.822872 2.55538,5.47212 M 2.5807806,243.37213 -2.9380388,240.91778 M 200.77229,-79.585398 l 4.56566,3.955055 m -88.59009,-89.168837 2.72637,5.39091 M 8.175365,245.65264 2.5807806,243.37213 M 205.33795,-75.630343 l 4.44038,4.097466 m -95.92528,-98.570573 2.89481,5.30427 M 13.840227,247.75691 8.175365,245.65264 M -226.7123,6.0229955 l -2.484,-5.5095941 m 438.97463,-72.0462784 4.31064,4.235942 m -439.44463,76.1462881 2.59734,4.7406249 m 333.55084,-188.905808 3.06053,5.21238 m -94.283249,419.78616 -5.729574,-1.9258 M -229.1963,0.5134014 -231.50697,-5.072905 m 445.59594,-62.22403 4.17648,4.37032 m -110.6963,-117.504435 3.22337,5.11522 m -85.434073,426.74379 -5.788646,-1.74525 m 198.695649,-312.609325 4.03806,4.500484 m -453.81048,53.353226 -2.13487,-5.657556 M 104.186,-185.44396 l 3.38315,5.01291 M 31.200454,252.9908 25.358447,251.42796 m 196.945063,-309.854091 3.89552,4.626246 m -459.84087,43.069424 -1.95683,-5.723262 m 336.24495,-173.895807 3.53972,4.90557 m -67.095946,439.81346 -5.8896,-1.3787 m 194.998576,-306.790685 3.74897,4.747532 m -465.54667,32.59863 -1.77669,-5.783348 m 334.32874,-172.905689 3.6929,4.79323 M 43.021409,255.56254 37.090054,254.3695 M 229.948,-49.052353 l 3.59856,4.86415 m -470.92192,21.951132 -1.59465,-5.837751 m 332.080831,-171.744018 3.842559,4.67608 m -47.964729,451.71134 -5.967242,-1.00604 m 190.525151,-299.750743 3.44444,4.976059 m -475.96101,11.137322 -1.41085,-5.886401 m 329.50317,-170.411787 3.988511,4.55417 M 54.985846,257.38649 48.988651,256.56858 M 236.991,-39.212144 l 3.28678,5.083051 m -480.65864,0.16787 -1.22551,-5.929244 m 302.613396,297.905747 -6.02118,-0.62879 m 30.005846,-466.18717 4.130618,4.42767 m 151.15547,170.243917 3.12569,5.185056 m -485.00984,-10.94643 -1.03882,-5.966216 M 67.046199,258.4542 61.007026,258.01528 m 19.715919,-471.11256 4.268747,4.2966 m 158.411778,179.856643 2.96137,5.281974 m -489.01003,-22.19462 -0.85092,-5.997284 M 73.09733,258.70264 67.046199,258.4542 m 9.274021,-475.71266 4.402725,4.16118 m 165.641895,189.435217 2.79397,5.373666 m -492.65492,-33.56557 -0.662,-6.022413 m 323.312489,316.63661 -6.057049,-0.0576 m -98.487668,-30.21963 -4.339589,-3.36844 m 101.517721,-446.39453 4.532426,4.0215 m 172.83859,198.970065 2.62362,5.460042 m -495.94054,-45.048024 -0.47231,-6.041542 m 329.841699,322.544669 -6.0569,0.13353 m -12.02429,-483.91788 4.657705,3.87768 m 179.994636,208.451609 2.45052,5.541024 m -498.86337,-56.63059 -0.28198,-6.054673 m 336.174357,328.2748 -6.050678,0.32454 M 254.23295,-7.287297 l 2.27487,5.6164952 M 62.351645,-228.88754 l 4.778444,3.72991 m -312.042489,155.18505 -0.0913,-6.061751 m 342.30395,333.821151 -6.038382,0.5154 M 256.50782,-1.6708357 258.60462,4.015552 M 57.457155,-232.46585 l 4.89449,3.5783 m 40.968715,485.96847 -6.02002,0.70589 m -342.30395,-333.821155 0.0997,-6.062804 m 503.50847,86.112701 1.9165,5.75062 m -208.0697,-245.654992 5.005737,3.42297 m 51.858793,488.65097 -5.99559,0.8958 m -348.22421,-339.178069 0.29082,-6.057762 m 505.13415,97.921083 1.73415,5.809124 M 47.339353,-239.15292 l 5.112065,3.2641 m 62.829662,490.98904 -5.96513,1.0849 m 152.93931,-240.609824 1.54994,5.86181 m -508.41823,-109.592017 0.48169,-6.046681 m 286.257348,-148.053188 5.213345,3.10186 m 73.870387,492.98008 -5.92866,1.27306 m 18.52894,-369.96122 0.51525,-0.60505 m 129.47993,136.903156 1.36406,5.908649 m -509.3006,-121.547347 0.67223,-6.029518 m 370.55503,352.59821 -5.88618,1.46006 m -84.393206,-499.01835 5.309474,2.93641 m 223.043252,269.600535 1.17668,5.949562 m -509.80505,-133.526427 0.86225,-6.0063 m 375.53053,356.95882 -5.83775,1.64569 m -95.679746,-500.32616 5.40036,2.76787 m 229.529406,278.486507 0.98803,5.984508 m -509.93083,-145.517235 1.05152,-5.97706 m 380.26243,361.10612 -5.78342,1.82976 m 134.4003,-211.441585 0.79826,6.013445 m -242.201932,-295.84879 5.485876,2.59646 m -254.174494,261.549038 3.11641,4.752587 m 364.08222,228.536985 -5.72322,2.0121 m -380.26243,-361.10612 1.23989,-5.9418 m 508.43768,163.44954 0.6076,6.03633 m -248.375486,-304.30743 5.565954,2.42231 m 124.167252,495.24256 -5.65724,2.19251 M 268.73983,51.3296 l 0.41618,6.053138 m -509.46146,-175.539008 1.42708,-5.90053 m 394.5614,366.37305 -5.58548,2.37079 m -135.373693,-499.91048 5.640487,2.24561 m 248.791666,310.360568 0.2243,6.063854 m -508.25868,-187.503392 1.61302,-5.85331 m 398.45646,369.67957 -5.50808,2.54679 M 9.014457,-257.28999 l 5.7094,2.06655 m 254.656453,318.670032 0.0321,6.06845 m -102.79629,167.534168 -5.42505,2.72025 m -398.45646,-369.67957 1.79741,-5.8002 m 504.88032,205.225352 -0.16028,6.066907 M 3.241845,-259.17532 l 5.772612,1.88533 m 162.938243,491.44811 -5.33654,2.89109 M 269.2521,75.581949 l -0.35255,6.059246 m -504.36749,-217.351505 1.98014,-5.74119 m 410.68305,372.55057 -5.24255,3.05905 m -174.5409138,-495.0355 5.8300588,1.70206 M 268.89955,81.641195 268.35502,87.686636 M -233.4878,-141.4515 l 2.16096,-5.67638 m 413.66535,375.00298 -5.14326,3.22397 m 91.15977,-143.412434 -0.73605,6.025528 M -8.4698747,-262.39436 l 5.8816609,1.51698 m 189.9654338,485.36673 -5.03871,3.38575 m 85.28046,-134.162936 -0.9269,5.999512 m -498.01891,-246.839556 2.33973,-5.60582 m 421.29337,373.67896 -4.92904,3.54409 m -201.774463,-488.21399 5.9273683,1.33028 M 266.69207,99.711676 l -1.11686,5.967414 m -68.45464,111.56723 -4.81431,3.69894 m -421.29337,-373.67896 2.5162,-5.52955 m 492.04612,263.94234 -1.30575,5.92926 m -284.633829,-376.47512 5.967126,1.14213 m 216.212533,477.1209 -4.69472,3.85006 m 67.14889,-105.63797 -1.49341,5.88508 m -489.24696,-275.75668 2.69028,-5.4477 m 430.16622,373.10986 -4.5703,3.99735 m 60.96076,-95.90283 -1.67953,5.83494 m -287.461781,-389.14786 6.000892,0.95272 m 231.191199,470.12506 -4.44124,4.14062 m 54.71093,-86.07054 -1.86407,5.77888 m -44.09797,71.87134 -4.30765,4.2797 m -434.60746,-368.96924 2.86169,-5.36028 m 480.15139,298.17848 -2.04672,5.71694 m -37.88158,61.7399 -4.16967,4.4145 m 42.05125,-66.1544 -2.22733,5.6492 m -287.352266,-407.05515 6.028605,0.76227 m 249.696841,457.83874 -4.02743,4.54484 m 35.65425,-56.0907 -2.40571,5.57573 m -25.34003,41.29957 -3.88108,4.67056 m -444.25052,-361.09048 3.03032,-5.26742 m 470.44131,320.38777 -2.58171,5.49659 m -19.02752,31.01138 -3.7308,4.7916 m 22.75832,-35.80298 -2.75508,5.41186 m -12.69573,20.69173 -3.57671,4.90779 m 16.27244,-25.59952 -2.92566,5.32163 m -282.734363,-429.43191 6.050257,0.57095 m 270.333026,439.21208 -3.41899,5.01898 m 9.77007,-15.3701 -3.09328,5.22602 m 0,0 -3.2578,5.1251 m -455.82778,-346.96897 3.19595,-5.16919 m 170.182739,-88.02386 6.065808,0.37899 m -176.248547,87.64487 3.35846,-5.06571 m 160.74905,-83.14468 6.075229,0.18653 m -166.824279,82.95815 3.5176,-4.95707 m 151.152911,-78.18143 6.078539,-0.006 m -157.23145,78.18761 3.67328,-4.84336 m 174.413403,419.48854 -4.290738,-3.87443 m -28.718693,-488.75322 6.075659,-0.19896 m -147.479631,73.33807 3.82529,-4.72469 m 131.512014,-68.0228 6.066668,-0.39162 m -137.578682,68.41442 3.97347,-4.60126 m 121.487029,-62.83763 6.051515,-0.58391 m -127.538544,63.42154 4.1177,-4.47307 m 111.339077,-57.58884 6.030252,-0.77572 m -117.369329,58.36456 4.25779,-4.34036 m 101.078433,-52.28172 6.002854,-0.96676 m -107.081287,53.24848 4.39359,-4.20317 m 90.715456,-46.92166 5.969387,-1.15689 m -96.684843,48.07855 4.52501,-4.06174 m 80.260592,-41.51404 5.929854,-1.34588 m -86.190446,42.85992 4.65186,-3.91615 m 69.72441,-36.06432 5.884322,-1.53357 m -75.608732,37.59789 4.77402,-3.76653 m 59.11758,-30.57808 5.83281,-1.71971 m -64.95039,32.29779 4.89135,-3.61309 m 48.45087,-25.06084 5.77536,-1.90415 m -54.22623,26.96499 5.00377,-3.45601 m 37.73502,-19.51815 5.71208,-2.08668 m -43.4471,21.60483 5.1111,-3.29533 m 26.98095,-13.9557 5.64297,-2.26712 m -32.62392,16.22282 5.21326,-3.13134 m 16.19952,-8.37909 5.56817,-2.44527 m -21.76769,10.82436 5.31015,-2.96417 m 5.40167,-2.79398 5.4877,-2.62094 m -10.88937,5.41492 5.40167,-2.79398 m -80.94861,266.057432 3.62271,4.743224 m 348.98579,-137.039506 0.84343,-0.90729 m -167.830685,336.1005 -4.222729,-4.36283 M -216.0192,23.085789 l 4.11233,4.712592 m 343.68656,-140.529061 1.1869,-1.22304 m -171.209984,330.83102 -4.13614,-4.83 M -211.90687,27.798381 l 4.58164,4.661 M -42.379534,212.0473 -46.411287,206.77474 M 130.2352,-111.1794 l 1.54449,-1.55128 m -339.10492,145.190061 5.02723,4.589011 m 155.886713,169.726348 -3.910633,-5.68746 m 178.64243,-310.37614 1.91469,-1.89054 m -332.5332,148.227792 5.44602,4.497445 m 146.53006,159.541443 -3.773901,-6.07214 M -196.85198,41.545837 l 5.83539,4.387329 m 317.04143,-152.982946 2.29567,-2.23908 m -182.416331,304.304 -3.622985,-6.42437 M -191.01659,45.933166 l 6.19308,4.259907 m 127.104704,138.397697 -3.459313,-6.74243 M -184.82351,50.193073 l 6.51731,4.116565 m 301.64577,-158.764518 2.68527,-2.5949 m -187.202959,288.89812 -3.284489,-7.02508 M -178.3062,54.309638 l 6.80677,3.958869 m 107.036822,116.554753 -3.100148,-7.27149 M -171.49943,58.268507 l 7.06062,3.788433 m 284.69738,-163.55611 3.081,-2.95571 m -190.902326,272.00665 -2.907982,-7.48139 m -93.968072,-98.01344 7.27845,3.606986 m 86.689622,94.406454 -2.709638,-7.65484 m -83.979984,-86.751614 7.46034,3.416281 m 76.519644,83.335333 -2.506792,-7.79236 m 192.465678,-242.80351 3.48006,-3.31884 m -269.95859,170.579377 7.60668,3.218041 m 66.406172,72.324932 -2.301024,-7.89484 m -64.105148,-64.430092 7.71833,3.01402 m 56.386818,61.416072 -2.093841,-7.96349 m -54.292977,-53.452582 7.79641,2.805859 m 46.496567,50.646723 -1.886715,-7.99978 m -44.609852,-42.646943 7.84238,2.595169 m 36.767472,40.051774 -1.680919,-8.00545 M 112.8992,-94.498866 l 3.87931,-3.681464 m -235.51473,178.893626 7.85785,2.38344 m 27.228703,29.662884 -1.477671,-7.98237 m -25.751032,-21.680514 7.84469,2.172064 m 17.906342,19.50845 -1.278024,-7.932597 m -1.082949,-7.858247 3.494246,-3.097062 m -2.411297,10.955309 -1.082949,-7.858247 m -7.740495,-1.755306 7.740495,1.755306 m -15.545369,-3.717606 7.804874,1.9623 M 108.6238,-90.458414 l 4.2754,-4.040452 m -196.893265,180.38821 3.791895,-3.371398 m 0,0 4.093795,-3.650124 M 103.95905,-86.065876 108.6238,-90.458414 M -76.108375,78.867822 -71.710089,74.936118 M 98.91544,-81.331628 l 5.04361,-4.734248 M -71.710089,74.936118 -67.006647,70.721693 M 93.507271,-76.269452 98.91544,-81.331628 M -67.006647,70.721693 -61.99956,66.225372 M 87.75268,-70.896691 93.507271,-76.269452 M -61.99956,66.225372 -56.692691,61.450138 M 81.673547,-65.234024 87.75268,-70.896691 m -144.445371,132.346829 5.600125,-5.048757 m 0,0 5.884074,-5.314369 M 75.295347,-59.30543 l 6.3782,-5.928594 m -126.882039,116.321036 6.155722,-5.5693 M 68.646872,-53.137837 75.295347,-59.30543 M -39.05277,45.517712 -32.640764,39.70697 m 94.400692,-86.467844 6.886944,-6.376963 m -101.287636,92.844807 6.649726,-6.035771 m 80.659911,-73.877613 7.091055,-6.55446 m -87.750966,80.432073 6.865685,-6.241413 m 66.535532,-60.937999 7.258694,-6.698201 m -73.794226,67.6362 7.056782,-6.424807 m 52.090444,-47.706323 7.388306,-6.806869 m -59.47875,54.513192 7.2199642,-6.583102 m 37.3915758,-34.243568 7.478904,-6.879653 M -4.8486068,14.421877 2.5038268,7.7081846 M 25.012902,-12.905443 32.542969,-19.821691 M 2.5038268,7.7081846 9.955482,0.8939968 m 7.51543,-6.8825008 7.54199,-6.916939 M 9.955482,0.8939968 17.470912,-5.988504"
     style="stroke-opacity:1;stroke-linecap:round;stroke-width:8.96556;stroke:#000000;fill:none;"
     id="path56" />
</svg>
