<?xml version="1.0" encoding="UTF-8" standalone="no"?>
<svg
   xmlns:dc="http://purl.org/dc/elements/1.1/"
   xmlns:cc="http://creativecommons.org/ns#"
   xmlns:rdf="http://www.w3.org/1999/02/22-rdf-syntax-ns#"
   xmlns:svg="http://www.w3.org/2000/svg"
   xmlns="http://www.w3.org/2000/svg"
   xmlns:sodipodi="http://sodipodi.sourceforge.net/DTD/sodipodi-0.dtd"
   xmlns:inkscape="http://www.inkscape.org/namespaces/inkscape"
   viewBox="-590.5 -394.5 600 600"
   width="600"
   height="600"
   version="1.1"
   id="svg863"
   sodipodi:docname="cell.svg"
   inkscape:version="1.0.2 (e86c8708, 2021-01-15)">
  <metadata
     id="metadata869">
    <rdf:RDF>
      <cc:Work
         rdf:about="">
        <dc:format>image/svg+xml</dc:format>
        <dc:type
           rdf:resource="http://purl.org/dc/dcmitype/StillImage" />
        <dc:title></dc:title>
      </cc:Work>
    </rdf:RDF>
  </metadata>
  <defs
     id="defs867" />
  <sodipodi:namedview
     pagecolor="#ffffff"
     bordercolor="#666666"
     borderopacity="1"
     objecttolerance="10"
     gridtolerance="10"
     guidetolerance="10"
     inkscape:pageopacity="0"
     inkscape:pageshadow="2"
     inkscape:window-width="1440"
     inkscape:window-height="792"
     id="namedview865"
     showgrid="false"
     units="px"
     width="600in"
     inkscape:zoom="0.74130048"
     inkscape:cx="590.5"
     inkscape:cy="394.5"
     inkscape:window-x="0"
     inkscape:window-y="25"
     inkscape:window-maximized="1"
     inkscape:current-layer="svg863" />
  <path
     d="m -54.20004,-21.533692 0.0034,-0.138906 m -0.0046,-0.174821 -0.0011,0.155695 m 0.0057,0.01904 0.0034,-0.153439 m -0.0068,-0.193445 -0.0011,0.172074 m 0.0068,0.02143 0.0034,-0.169521 m -0.0091,-0.214098 -0.0011,0.190174 m 0.01026,0.02394 0.0034,-0.187291 m -0.01185,-0.236985 -9e-4,0.210177 m 0.01185,0.02679 0.0034,-0.206918 m -0.01482,-0.262346 -5.36e-4,0.23229 m 0.01482,0.02998 0.0046,-0.228573 m -0.01824,-0.290487 v 0.256715 m 0.01824,0.03374 0.0046,-0.252509 m -0.02302,-0.321694 7.18e-4,0.283716 m 0.02234,0.03807 0.0046,-0.278918 m -0.02895,-0.356344 0.0011,0.313568 m 0.02644,0.02223 0.0046,-0.311072 m -0.0034,0.331634 0.0046,-0.308086 m -0.03636,-0.3948 0.0034,0.346553 m 0.03248,0.02473 0.0046,-0.34375 m -0.0034,0.367298 0.0046,-0.340262 m -0.04536,-0.437509 0.0046,0.38297 m 0.03978,0.02747 0.0046,-0.379892 m -0.0034,0.406939 0.0046,-0.375766 m -0.05676,-0.484981 0.0057,0.423227 m 0.04856,0.03066 0.0046,-0.419785 m -0.0034,0.450958 0.0046,-0.414952 m -0.07055,-0.537731 0.0091,0.467702 m 0.0595,0.03397 0.0046,-0.463906 m -0.0011,0.499912 0.0046,-0.458162 m -0.08776,-0.596418 0.01185,0.516849 m 0.07511,0.07956 0.0046,-0.505794 m -0.108736,-0.661716 0.01653,0.571103 m 0.09198,0.09061 0.0046,-0.558314 m -0.134461,-0.734436 0.02188,0.631034 m -0.05026,-1.328221 0.02838,0.697187 m 0.134461,0.734436 0.0034,-0.616183 m -0.202826,-1.585653 0.0367,0.770213 m 0.166147,0.81544 0.0011,-0.679896 m -0.251985,-1.756554 0.04685,0.850797 m 0.205071,0.905757 8.32e-4,-0.750073 m -0.31244,-1.946135 0.05961,0.939654 m 0.252806,1.006481 -0.0011,-0.827203 m -0.386765,-2.156541 0.07545,1.037609 m 0.311357,1.118932 -0.0046,-0.912015 m -0.478028,-2.39006 0.09494,1.145534 m 0.383095,1.244526 -0.0068,-1.005147 m -0.590024,-2.649203 0.119086,1.26429 m 0.470995,1.384913 -0.01185,-1.107317 m -0.727357,-2.936796 0.148754,1.39491 m -0.334072,-2.933228 0.185318,1.538318 m 0.727357,2.936796 -0.01698,-1.219223 m -1.125908,-4.951466 0.230294,1.695575 m 0.895614,3.255891 -0.02428,-1.341647 m -1.387057,-5.477502 0.285461,1.867683 m 1.101596,3.609819 -0.0334,-1.475288 m -1.706574,-6.057803 0.353016,2.055589 m 1.353558,4.002214 -0.04514,-1.620873 m -2.097088,-6.697029 0.43557,2.260099 m 1.661518,4.43693 -0.05961,-1.778985 m -2.573783,-7.399944 0.536294,2.4819 m -1.195161,-5.20327 0.658867,2.72137 m 2.573783,7.399944 -0.07785,-1.950193 m -3.962482,-11.149451 0.807622,2.97833 m 3.15486,8.171121 -0.100416,-2.134751 m -4.849626,-12.26684 0.98756,3.25214 m 3.862066,9.0147 -0.128397,-2.33271 m -5.925622,-13.4753 1.204462,3.54117 m -2.669207,-7.38382 1.464745,3.84265 m 5.925622,13.4753 -0.163104,-2.54373 m -9.002669,-18.92653 1.775406,4.15231 m 7.227263,14.77422 -0.205675,-2.76684 m -10.940894,-20.62357 2.1439,4.46388 m 8.796994,16.15969 -0.257821,-3.00041 m -13.260698,-22.39187 2.577625,4.76871 m 10.038738,11.25524 0.489483,4.71262 m -1.048561,-9.41869 0.559078,4.70607 m -15.699849,-21.07925 3.083486,5.0553 m 13.260698,22.39187 -0.32133,-3.24176 m -1.283746,-10.8902 -0.719048,-4.94134 m -17.686925,-13.68277 3.666865,5.3089 m 16.022854,24.20541 -0.398322,-3.48702 m -225.146392,42.589538 -0.003,-0.158487 m -10e-4,0.160368 -0.005,-0.158077 m 0.006,-0.0034 -0.003,-0.175151 m -0.003,0.177465 -0.005,-0.174662 m 0.007,-0.0034 -0.003,-0.193605 m -0.005,0.196398 -0.005,-0.19299 m 0.009,-0.0034 -0.003,-0.213984 m -0.0229,0.229394 -0.009,-0.212024 m 0.026,0.200045 -0.005,-0.213244 m 201.548096,-73.391084 4.330713,5.51134 m -205.867839,67.875573 -0.003,-0.236518 m 223.557079,-53.956285 -0.890815,-5.4232 m -222.695894,59.633373 -0.0103,-0.234272 m 0.0311,0.221073 -0.006,-0.235583 m 0.0133,-0.0046 -0.003,-0.261411 m -0.0364,0.281027 -0.0118,-0.258847 m 0.0369,0.244326 -0.006,-0.260294 m 0.0164,-0.0057 -0.003,-0.288914 m -0.0456,0.311094 -0.0133,-0.285985 m 0.0442,0.270039 -0.006,-0.287557 m 0.0199,-0.0068 -10e-4,-0.319346 m -0.057,0.344444 -0.0148,-0.315972 m 0.053,0.298442 -0.006,-0.317671 m 0.0244,-0.0091 -5.9e-4,-0.352936 m -0.0709,0.381419 -0.0164,-0.349083 m 0.0635,0.329866 -0.006,-0.35093 m 0.0299,-0.01185 6.9e-4,-0.390105 m -0.088,0.42244 -0.0188,-0.385648 m 0.0761,0.364585 -0.006,-0.387631 m 0.0366,-0.01334 0.003,-0.431148 m -0.10919,0.467952 -0.0213,-0.426019 m 0.0915,0.402961 -0.006,-0.428151 m 0.0446,-0.01676 0.005,-0.476523 m -0.1352,0.518456 -0.0244,-0.470585 m 0.11033,0.445396 -0.005,-0.472865 m 0.0545,-0.0204 0.007,-0.526652 m -0.16711,0.5745 -0.0278,-0.519779 m 0.13299,0.492333 -0.005,-0.522206 m 0.0665,-0.02485 0.0118,-0.582022 m -0.20636,0.636743 -0.0319,-0.574089 m 0.16047,0.544216 -0.003,-0.576598 m 0.0811,-0.03032 0.0162,-0.643184 m -0.25451,0.705827 -0.0367,-0.634031 m 0.29124,-0.07169 0.0223,-0.710762 m -0.11968,1.384218 -0.001,-0.636641 m -0.19207,0.03511 -0.0423,-0.700139 m 0.35591,-0.08241 0.0302,-0.785361 m -0.15165,1.532926 4.1e-4,-0.70276 m 0.15124,-0.830166 0.0399,-0.867677 m -0.42594,1.735445 -0.0488,-0.773075 m 0.28366,0.735473 0.003,-0.775673 m 0.18783,-0.92217 0.0522,-0.95853 m 196.285523,-71.197029 5.073856,5.641176 m -201.886459,67.476753 -0.0566,-0.853497 m 0.34358,0.813297 0.007,-0.855948 m 0.23285,-1.024752 0.0676,-1.058717 m -0.65114,2.12612 -0.0657,-0.94214 m 0.41644,0.899489 0.0119,-0.944294 m 0.28818,-1.139175 0.0867,-1.169117 m -0.8035,2.353097 -0.0765,-1.039808 m 0.50509,0.995003 0.0188,-1.041495 m 225.18328,-33.056186 -0.491101,-3.73059 m -224.336239,35.519979 0.11056,-1.29071 m 222.221631,-48.266399 -1.101004,-5.9433 m -222.110997,56.813698 -0.0892,-1.147381 m 0.61301,1.100889 0.0271,-1.148293 m 0.43939,-1.409214 0.13993,-1.424487 m -1.21941,2.881105 -0.10429,-1.265794 m 1.32368,-1.615311 0.17636,-1.571475 m -0.75566,4.405176 0.0377,-1.265566 m 0.7179,-3.13961 0.22133,-1.732732 m -1.72139,4.919518 -0.12219,-1.396061 m 191.437465,-72.147709 5.889495,5.674461 m -196.42259,67.822133 0.0513,-1.394158 m 0.88797,-3.478184 0.27673,-1.909331 m -2.12032,5.432788 -0.14364,-1.53923 m 1.09919,1.493957 0.0682,-1.534944 m 1.09642,-3.852571 0.3448,-2.102287 m -2.60868,5.995845 -0.16903,-1.696464 m 1.33649,1.655477 0.0895,-1.688862 m 1.35165,-4.265996 0.42823,-2.312441 m -3.20594,6.611822 -0.19948,-1.868926 m 222.938708,-47.899842 -1.357604,-6.50165 m -219.955554,56.237033 0.11627,-1.856707 m 1.66369,-4.72173 0.53026,-2.540556 m 222.108183,-20.63596 -0.602129,-3.96502 m -221.506054,24.60098 0.65468,-2.78699 m -4.59036,10.070442 -0.23585,-2.057857 m 1.97758,2.036691 0.14936,-2.039324 m 2.69927,-8.009952 0.80598,-3.0517 m -5.63219,11.064285 -0.2794,-2.264502 m 2.40634,2.261869 0.19049,-2.237352 m 3.31476,-8.8243 0.98927,-3.33396 m -6.90086,12.133743 -0.33163,-2.490043 m 7.23249,-9.6437 1.21046,-3.63222 m -5.51449,15.79048 0.24133,-2.45125 m 219.25816,-47.6524 -1.670033,-7.096986 m -212.314967,41.410156 1.47616,-3.94357 m -9.91911,17.21949 -0.39419,-2.7357 m 3.56398,2.79901 0.30399,-2.68116 m 222.814833,-22.45418 -0.733956,-4.18044 m -215.635547,12.03298 1.79349,-4.26368 m -12.10679,18.74747 -0.46932,-3.00244 m 4.33729,3.12029 0.38095,-2.92685 m 7.85787,-15.93847 2.17,-4.5861 m 0,0 2.61313,-4.90192 m -17.35924,25.23305 -0.55942,-3.29109 m 5.27766,3.48453 0.47516,-3.18739 m 216.428028,-45.953986 -2.049343,-7.726181 m -202.212845,31.441067 3.12972,-5.19923 m -21.04838,27.14119 -0.66753,-3.60209 m 227.645118,-16.62115 -0.888991,-4.36429 m -205.040217,-2.55366 3.72499,-5.46286 m -19.02055,32.90119 0.58999,-3.46103 m 18.43056,-29.44016 4.4014,-5.6741 m -29.8423,34.67606 -0.79721,-3.93545 m 30.63951,-30.74061 5.15712,-5.81089 m -27.98908,40.92515 0.72942,-3.74498 m 27.25966,-37.18017 5.98442,-5.848687 m 179.815195,-3.4453 -2.508131,-8.3838 m -177.307064,11.8291 6.86782,-5.7618 m -48.64887,48.161987 -0.95256,-4.2903 m 9.48953,4.91897 0.89777,-4.03499 m 218.118597,-13.64367 -1.06934,-4.50115 m -177.835127,-26.610847 7.78292,-5.52597 m 0,0 8.69585,-5.1216 m -66.0802,54.519257 -1.13847,-4.66501 m 11.52577,5.54899 1.10003,-4.32487 m 208.553344,-46.498097 -3.060737,-9.06116 m -218.118407,54.335137 -1.36041,-5.05638 m 229.935426,-7.53945 -1.276315,-4.57264 m -214.672921,18.39259 1.3413,-4.60635 m -15.32749,-1.67415 -1.62476,-5.45965 m 221.103577,-43.819107 -3.722942,-9.74547 m -200.428385,60.698377 1.62692,-4.86825 m 211.704701,-8.91799 -1.510154,-4.55794 m -228.773717,11.21038 -1.93845,-5.86767 m 20.51762,8.13322 1.96182,-5.09651 m 196.839645,-50.733617 -4.511633,-10.41874 m -214.807452,58.115647 -2.30903,-6.27049 m 24.78847,9.3072 2.35015,-5.27342 m 205.882577,-3.106 -1.769262,-4.43464 m -14.135453,-48.338297 -5.443969,-11.05657 m -211.672513,62.901727 -2.74436,-6.654596 m 29.88298,10.688376 2.79447,-5.37804 m 201.318845,-2.1626 -2.049891,-4.180416 m -199.268954,6.343016 3.29459,-5.386436 m -35.97204,0.076 -3.25198,-7.002371 m 217.668853,-49.24477 -6.536178,-11.62721 m 24.065709,66.841671 -2.34538,-3.775621 m -193.628984,4.732201 3.84668,-5.272601 m -43.0707,-1.65367 -3.83876,-7.2914 m 214.971435,-53.58058 -7.80158,-12.09037 m -160.260395,74.61602 4.44194,-5.01069 m 185.340364,5.55109 -2.646092,-3.20629 m -234.045672,-6.27918 -4.5095,-7.49419 m 55.8609,11.42857 5.06551,-4.57753 m 150.752945,-65.0278 -9.248155,-12.39734 m -202.4312,70.5741 -5.26587,-7.57822 m 243.821042,21.35159 -2.939303,-2.46781 m -174.689459,-4.45452 5.69599,-3.95645 m 135.8088,-73.46869 -10.87488,-12.49125 m -196.82219,75.48713 -6.10469,-7.50689 m 246.986429,26.39067 -3.209946,-1.5683 m -165.783523,-6.84267 6.30584,-3.14139 m 159.477683,9.98406 -3.44178,-0.53084 m -240.334703,-24.29153 -7.01585,-7.2412 m 209.94273,-60.73904 -12.66808,-12.30952 m -105.96,95.12807 6.86261,-2.14079 m 149.173293,11.59401 -3.61921,0.60616 m -145.554083,-12.20017 7.33204,-0.98021 m 91.76535,-92.00707 -14.59693,-11.78816 m 61.053623,116.97561 -3.729429,1.79156 m -57.324194,-118.76717 -16.61002,-10.86825 m 73.934214,129.63542 -3.764099,2.96619 m 0,0 -3.72103,4.07008 m -66.449085,-136.67169 -18.63342,-9.50517 m 85.082505,146.17686 -3.60409,5.049477 m 0,0 -3.422915,5.86331 m -78.0555,-157.089647 -20.57187,-7.67902 m 98.62737,164.768668 -3.19104,6.48672 m 0,0 -2.92413,6.91189 m -92.5122,-178.167278 -22.31412,-5.40494 m 114.82632,183.572218 -2.63788,7.14627 m 0,0 -2.34643,7.2088 m 0,0 -2.06143,7.12551 m 0,0 -1.79153,6.92583 m -105.98905,-211.978628 -23.74331,-2.74027 m 129.73236,214.718898 -1.54256,6.638687 m 0,0 -1.31764,6.290777 m 0,0 -1.11806,5.905037 m 0,0 -0.94337,5.500138 m 0,0 -0.79232,5.090726 m -3.90119,48.893794 -10e-4,0.176432 m 0.005,-0.371519 -0.001,0.195087 m -0.0148,-0.217764 9.4e-4,0.197143 m 0.0185,-0.390159 -0.003,0.215693 m -0.0182,-0.240648 0.001,0.217971 m 0.0223,-0.431534 -0.003,0.238518 m -0.0223,-0.265943 10e-4,0.240988 m 0.0271,-0.477302 -0.003,0.263739 m -0.0253,0.138016 -10e-4,-0.248295 m -1.2e-4,-0.183563 0.003,0.266461 m 0.0327,-0.527982 -0.005,0.291668 m -0.0308,0.153416 -0.003,-0.27439 m -2.6e-4,-0.2038 0.003,0.294627 m 0.0397,-0.584091 -0.005,0.32257 m -0.0376,0.170694 -0.003,-0.303237 m -4.1e-4,-0.226357 0.003,0.325794 m 0.0481,-0.646234 -0.006,0.35677 m -0.0457,0.190027 -0.005,-0.335114 m -6.4e-4,-0.251535 0.005,0.360292 m 0.0585,-0.715051 -0.006,0.394611 m -0.0622,-0.438279 0.006,0.398427 m 6.3e-4,0.251535 -0.006,-0.370305 m 0.0759,-0.672478 -0.007,0.436489 m -0.0764,-0.484298 0.007,0.44063 m 9.3e-4,0.279657 -0.007,-0.409211 m 0.0923,-0.746116 -0.009,0.482849 m -0.0829,0.263267 -0.009,-0.4522 m 0.11227,-0.828096 -0.0119,0.53418 m -0.10121,0.293916 -0.0103,-0.499682 m 0.13668,-0.919398 -0.0133,0.590984 m -0.12337,0.328414 -0.0133,-0.552139 m 0.16648,-1.021156 -0.016,0.653897 m 3.82703,-44.570634 -0.66298,4.687627 m -3.12925,38.505554 -0.019,0.723541 m -0.16648,1.021156 -0.0172,-0.61008 m 0.22569,-1.935288 -0.0229,0.800671 m -0.20278,1.134617 -0.0214,-0.674076 m 0.27456,-2.147251 -0.0275,0.886039 m -0.24705,1.261212 -0.0264,-0.744769 m 0.33412,-2.383032 -0.0332,0.98055 m -0.30104,1.402482 -0.0328,-0.82283 m 0.40674,-2.645382 -0.0398,1.08518 m 0.0878,-2.286127 -0.0479,1.200947 m 3.00597,-34.753114 -0.55302,4.298594 m -2.85966,33.099902 -0.0406,-0.908983 m 0.5531,-4.266368 -0.0578,1.329022 m -0.49525,2.937346 -0.0502,-1.0041 m 0.67298,-4.732871 -0.0699,1.470603 m 0.1541,-3.097683 -0.0844,1.62708 m -0.67297,4.732871 -0.0618,-1.10904 m 3.01209,-30.077779 -0.4602,3.9286746 m -1.63098,19.0984074 -0.10179,1.799786 m -0.81907,5.250911 -0.0761,-1.224851 m 1.12014,-7.81603 -0.12308,1.990184 m 1.63099,-19.0984074 -0.38223,3.581039 m -0.97687,11.327374 -0.1488,2.1998104 m 0.32868,-4.6298554 -0.17988,2.430045 m 0.97687,-11.327374 -0.317,3.257236 m -1.9288,18.0859784 -0.0938,-1.352543 m 1.75993,-13.7756564 -0.21739,2.682314 m 0.48,-5.640093 -0.26261,2.957779 m -1.75993,13.7756564 -0.11524,-1.49328 m 0,0 -0.14171,-1.648354 m 0,0 -0.17402,-1.81906 m 0,0 -0.2136,-2.006824 m 0,0 -0.26195,-2.2131984 m 0,0 -0.32113,-2.439676 m 0,0 -0.39335,-2.687865 m 0,0 -0.48152,-2.959386 m 0,0 -0.58903,-3.255675 m 0,0 -0.71996,-3.578121 m 0,0 -0.87926,-3.9278196 m 0,0 -1.0727,-4.305387 m -114.25693,-248.296239 -24.7511,0.21363 m 139.00802,248.082609 -1.30725,-4.710845 m 0,0 -1.5909,-5.143282 m 0,0 -1.93297,-5.600508 m 0,0 -2.34414,-6.078582 m 0,0 -2.83619,-6.571284 m 0,0 -3.42209,-7.06946 m 0,0 -4.11526,-7.56021 m 0,0 -4.92912,-8.02616 m -116.53011,-197.322278 -25.25335,3.31779 m 141.78346,194.004488 -5.87566,-8.44476 m 0,0 -6.96392,-8.78759 m 0,0 -8.19776,-9.02038 m 0,0 -9.57292,-9.103568 m -111.1732,-158.64819 -25.20435,6.40981 m 136.37755,152.23838 -11.07389,-8.99401 m 0,0 -12.67088,-8.64812 m -112.63278,-134.59625 -24.60448,9.32385 m 137.23726,125.2724 -14.31722,-8.02648 m 0,0 -15.94861,-7.10022 m -106.97143,-110.1457 -23.50102,11.91203 m 130.47245,98.23367 -17.48506,-5.85792 m 0,0 -18.83633,-4.31209 m -94.15106,-88.06366 -21.97969,14.06182 m 116.13075,74.00184 -19.91047,-2.50369 m 0,0 -20.62588,-0.50246 m -75.5944,-70.99569 -20.15126,15.70693 m 95.74566,55.28876 -20.92292,1.59791 m -74.82274,-56.88667 -18.13518,16.82834 m 92.95792,40.05833 -20.77405,3.68949 m 0,0 -20.18867,5.66333 m -51.9952,-49.41115 -16.0451,17.44883 m 68.0403,31.96232 -19.21162,7.42288 m -48.82868,-39.3852 -13.97821,17.6216 m 62.80689,21.7636 -17.91616,8.89518 m -44.89073,-30.65878 -12.00951,17.4186 m 56.90024,13.24018 -16.39222,10.0371 m -40.50802,-23.27728 -10.19058,16.9185 m -42.3616,190.534832 0.0243,0.294006 m -0.0488,-0.485837 0.0271,0.312688 m 93.05763,-184.296909 -14.73456,10.835901 m -78.35195,173.015126 0.0263,0.325025 m -0.0541,-0.537612 0.0296,0.345781 m -0.0302,-0.492524 0.0284,0.35933 m -0.0601,-0.594978 0.0322,0.382391 m -0.0311,-0.544016 0.0307,0.397273 m -0.0666,-0.658557 0.0349,0.422909 m -0.0317,-0.600866 0.0327,0.439241 m -0.0739,-0.729045 0.0378,0.467761 m -0.0428,-0.455439 0.0387,0.465868 m -0.0277,-0.674045 0.0349,0.485659 m -0.082,-0.807194 0.0408,0.51739 m -0.0471,-0.502833 0.0421,0.515155 m -0.026,-0.745153 0.0372,0.536976 m -0.091,-0.893879 0.0441,0.572344 m -0.0516,-0.555112 0.0454,0.569669 m -0.0233,-0.823778 0.0392,0.59378 m -0.10098,-0.990091 0.0472,0.633188 m -0.0565,-0.61276 0.049,0.629992 m -0.0189,-0.910683 0.0412,0.656574 m -0.11227,-1.096835 0.0505,0.700524 m -0.062,-0.676308 0.0527,0.696736 m -0.0133,-1.006778 0.0427,0.726087 m -0.12484,-1.2154 0.0537,0.775139 m -0.0676,-0.746411 0.0562,0.770628 m -0.005,-1.11299 0.0438,0.802948 m -0.15617,-1.312957 0.0599,0.852372 m 0.009,-1.23037 0.0443,0.888007 m -0.17581,-1.452881 0.0635,0.942872 m 0.0242,-1.360087 0.0439,0.982089 m -0.1982,-1.607955 0.0667,1.04308 m 0.0451,-1.503414 0.0425,1.0862 m -0.22383,-1.779845 0.0695,1.153979 m 0.0725,-1.661696 0.0393,1.201361 m -0.25321,-1.970479 0.0717,1.276835 m 0.10771,-1.836487 0.0343,1.328771 m -0.28694,-2.18197 0.0731,1.412852 m 0.15261,-2.029353 0.0268,1.4697 m 42.92298,-179.725512 -8.55145,16.19844 m -34.69737,161.110355 0.0733,1.563517 m 0.2098,-2.242044 0.016,1.625543 m -0.3707,-2.677364 0.0717,1.730348 m 0.28215,-2.476404 9.1e-4,1.797877 m -0.4226,-2.967004 0.0679,1.915183 m 0.37324,-2.734419 -0.0194,1.988363 m -0.48282,-3.289013 0.0611,2.119886 m 79.35241,-156.468583 -13.03138,11.305386 m -65.83358,142.145171 -0.0463,2.19879 m -0.55281,-3.647308 0.0506,2.346658 m 0.63026,-3.329309 -0.0816,2.431169 m -0.63432,-4.046282 0.0352,2.597764 m 0.80821,-3.670162 -0.12736,2.687511 m -0.7295,-4.490965 0.0133,2.875852 m 1.02939,-4.04248 -0.18603,2.970082 m -0.84076,-4.987173 -0.0161,3.183719 m 1.30361,-4.447727 -0.26073,3.281099 m 33.95438,-146.358036 -7.10455,15.327967 m -27.82096,125.488643 -0.0556,3.524335 m 1.64273,-4.886848 -0.35521,3.62284 m -1.12412,-6.161404 -0.10771,3.901077 m 66.40963,-128.514983 -11.3572,11.47899 m -52.99131,111.675925 -0.47405,3.997555 m -1.30382,-6.855908 -0.17551,4.317344 m 2.57609,-5.86626 -0.62271,4.407269 m -1.51505,-7.635203 -0.26282,4.77685 m 3.20835,-6.402614 -0.80777,4.853698 m 25.13714,-115.721306 -5.84915,14.365981 m -21.05151,92.844099 -0.37424,5.283293 m 3.98246,-6.963672 -1.03693,5.337908 m 51.56083,-102.414958 -9.76867,11.402109 m -43.84784,81.514858 -0.51561,5.840461 m 4.92762,-7.540572 -1.3194,5.860194 m -2.39892,-10.611957 -0.69369,6.451874 m 20.5359,-87.003637 -4.77531,13.36001 m -9.68296,65.5240666 -1.66562,6.4194494 m -2.80165,-11.8724454 -0.91667,7.1206824 m 43.15415,-75.062983 -8.30428,11.12495 m -27.3783,55.2576386 -2.08763,7.012708 m -3.27291,-13.302299 -1.19436,7.849303 m 14.15023,-60.0710706 -3.86788,12.34647 m -7.54977,31.236405 -1.53822,8.6388926 m 7.95926,-1.344975 -2.59872,7.634566 m 27.3783,-55.2576386 -6.98596,10.69695 m -16.66489,-1.6042 -3.10882,11.352135 m -2.47944,10.395515 -1.96151,9.488755 m 9.63436,-0.982374 -3.21332,8.2762916 m -1.98009,-27.1781876 -2.47944,10.395515 m 22.25315,-20.14345 -5.82229,10.163092 m -4.81178,9.561907 -3.94623,8.924832 m 8.75801,-18.486739 -4.81178,9.561907"
     style="stroke-opacity:1;stroke-linecap:round;stroke-width:25;stroke:#000000;fill:none;"
     id="path861" />
</svg>
