<?xml version="1.0" encoding="UTF-8" standalone="no"?>
<svg
   xmlns:dc="http://purl.org/dc/elements/1.1/"
   xmlns:cc="http://creativecommons.org/ns#"
   xmlns:rdf="http://www.w3.org/1999/02/22-rdf-syntax-ns#"
   xmlns:svg="http://www.w3.org/2000/svg"
   xmlns="http://www.w3.org/2000/svg"
   xmlns:sodipodi="http://sodipodi.sourceforge.net/DTD/sodipodi-0.dtd"
   xmlns:inkscape="http://www.inkscape.org/namespaces/inkscape"
   viewBox="-540 -540 1080 1080"
   width="1080"
   height="1080"
   style=""
   stroke="#000000"
   stroke-width="75"
   version="1.1"
   id="svg845"
   sodipodi:docname="cell.svg"
   inkscape:version="1.0.2 (e86c8708, 2021-01-15)">
  <metadata
     id="metadata851">
    <rdf:RDF>
      <cc:Work
         rdf:about="">
        <dc:format>image/svg+xml</dc:format>
        <dc:type
           rdf:resource="http://purl.org/dc/dcmitype/StillImage" />
        <dc:title />
      </cc:Work>
    </rdf:RDF>
  </metadata>
  <defs
     id="defs849" />
  <sodipodi:namedview
     pagecolor="#ffffff"
     bordercolor="#666666"
     borderopacity="1"
     objecttolerance="10"
     gridtolerance="10"
     guidetolerance="10"
     inkscape:pageopacity="0"
     inkscape:pageshadow="2"
     inkscape:window-width="1440"
     inkscape:window-height="792"
     id="namedview847"
     showgrid="false"
     inkscape:zoom="0.48517716"
     inkscape:cx="462.05041"
     inkscape:cy="594.10227"
     inkscape:window-x="0"
     inkscape:window-y="25"
     inkscape:window-maximized="1"
     inkscape:current-layer="svg845"
     inkscape:document-rotation="0" />
  <path
     d="m 419.85075,232.0195 0.007,-0.46152 m 0.009,0.46289 0.0103,-0.46122 m -0.0198,-0.002 0.007,-0.51004 m 0.0133,0.51172 0.0118,-0.50968 m -0.0242,-0.002 0.007,-0.56365 m 0.0174,0.56569 0.0118,-0.56321 m -0.0295,-0.003 0.007,-0.62288 m 0.0229,0.62536 0.0133,-0.62234 m -0.0362,-0.003 0.006,-0.68834 m 0.0298,0.69136 0.0148,-0.68768 m -0.0133,0.29217 0.0133,-0.72972 m -0.0437,0.43387 0.006,-0.76067 m 0.0386,0.76435 0.0155,-0.75987 m -0.0159,0.32232 0.0133,-0.80642 m -0.052,0.47962 0.004,-0.84057 m 0.0493,0.84505 0.0165,-0.83959 m -0.0185,0.35549 0.0148,-0.89117 m -0.062,0.53022 0.003,-0.92884 m 0.0628,0.9343 0.0177,-0.92766 m -0.0216,0.39198 0.0152,-0.98484 m -0.0743,0.58622 0.001,-1.02637 m 0.0795,1.03301 0.0189,-1.02494 m -0.0251,0.43209 0.0157,-1.08834 m -0.0889,0.64819 -10e-4,-1.13411 m 0.10014,1.14218 0.0199,-1.13236 m -0.0293,0.4761 0.016,-1.20268 m -0.10663,0.71676 -0.006,-1.25309 m 0.12584,1.26291 0.021,-1.25098 m -0.0343,0.5244 0.0158,-1.32904 m -0.1282,0.79271 -0.0103,-1.38451 m 0.15737,1.39644 0.0219,-1.38196 m -0.0403,0.57732 0.0152,-1.46862 m -0.15418,0.87682 -0.0173,-1.52963 m 0.17143,0.65281 0.0148,-1.62285 m 0.0103,2.51415 0.0224,-1.52653 m -0.21881,-0.0176 -0.0257,-1.68985 m 0.21138,0.71981 0.0118,-1.79321 m 0.0205,2.78083 0.0227,-1.68612 m -0.26727,-0.0213 -0.0365,-1.8667 m 0.30372,1.88801 0.0227,-1.86219 m -0.32643,-0.0258 -0.0501,-2.06188 m 0.37655,2.0877 0.0222,-2.05644 m -0.39868,-0.0312 -0.0673,-2.2772 m 0.46611,2.30845 0.0208,-2.27066 m -0.48693,-0.0378 -0.0892,-2.51467 m 0.57614,2.55246 0.0186,-2.5068 m -0.59468,-0.0457 -0.11653,-2.77641 m 0.71117,2.82205 0.0151,-2.767 m -0.72623,-0.0551 -0.15065,-3.06478 m 0.87688,3.11983 0.0103,-3.05354 m -0.88686,-0.0663 -0.19313,-3.38227 m 0,0 -0.24598,-3.73153 m 1.32597,7.1801 0.003,-3.36886 m -1.32891,-3.81124 -0.3115,-4.11535 m 1.64041,7.92659 -0.007,-3.71561 m -1.63374,-4.21098 -0.39253,-4.53662 m 2.02627,8.7476 -0.0195,-4.0965 m -2.00678,-4.6511 -0.49253,-4.99832 m 2.49931,9.64942 -0.0363,-4.51441 m -2.46303,-5.13501 -0.61571,-5.50336 m 3.07874,10.63837 -0.058,-4.97228 m -3.02068,-5.66609 -0.76716,-6.05457 m 3.78784,11.72066 -0.0861,-5.47304 m -3.70176,-6.24761 -0.9529,-6.65447 m 4.65466,12.90208 -0.12185,-6.0195 m -4.53285,-6.88258 -1.18026,-7.3051 m 5.71311,14.18768 -0.167,-6.6143 m -5.54611,-7.57338 -1.45783,-8.00765 m 7.00394,15.58103 -0.22392,-7.25956 m -6.78002,-8.32147 -1.79579,-8.76223 m 8.57581,17.0837 -0.29516,-7.95678 m -8.28065,-9.12692 -2.20612,-9.56722 m 10.48755,18.69503 -0.38383,-8.70639 m -10.10294,-9.98775 -2.70242,-10.41866 m 12.80536,20.40641 -0.49375,-9.50734 m -12.31161,-10.89907 -3.3004,-11.30944 m 0,0 -4.01734,-12.228366 m 19.62935,34.436876 -0.62913,-10.35646 M 398.69748,97.488714 393.82551,84.32986 m 23.87219,37.23927 -0.79523,-11.24777 m -23.07696,-25.9915 -5.88388,-14.07778 m 28.96084,40.06928 -0.99771,-12.171505 M 387.94163,70.25208 380.86954,55.298072 m 35.03522,42.851783 -1.24309,-13.113099 M 380.86954,55.298072 372.41591,39.550855 m 42.24576,45.485901 -1.53841,-14.051697 M 372.41591,39.550855 362.37494,23.143856 m 50.74832,47.841203 -1.89101,-14.959074 M 362.37494,23.143856 350.53622,6.2711 m 60.69603,49.754885 -2.30819,-15.79801 M 350.53622,6.2711 336.69637,-10.80395 m 72.22769,51.031925 -2.79643,-16.52127 M 336.69637,-10.80395 320.67539,-27.74259 m 0,0 -18.33853,-16.38792 M 406.12763,23.706705 402.76697,6.63579 M 302.33686,-44.13051 281.61144,-59.4858 m 121.15553,66.12159 -4.00293,-17.37892 m 0,0 -4.72082,-17.36901 m 0,0 -5.50616,-16.96094 m 0,0 -6.34313,-16.07761 m -4.07407,-9.94643 4.59322,10.99599 m -9.35519,-21.92766 4.76197,10.93167 m -9.69191,-21.7965 4.92994,10.86483 m -10.02697,-21.66042 5.09703,10.79559 m -10.36029,-21.51941 5.26326,10.72383 m -10.69183,-21.37347 5.42857,10.64964 m -11.02144,-21.2227 5.59287,10.57306 m -11.34913,-21.06703 5.75626,10.49397 m -11.67484,-20.90647 5.91858,10.4125 m -11.99843,-20.7411 6.07985,10.3286 m -12.31985,-20.57091 6.24,10.24231 m 52.9024,105.72011 -7.2073,-14.65454 m -64.80102,-121.35595 12.86592,20.04807 m -12.86592,-20.04807 -21.80202,-30.00289 m 86.60304,151.35884 -8.06534,-12.65183 m -78.53958,-138.70707 -25.09935,-29.0775 m 103.63705,167.78451 -8.87637,-10.0665 m -94.76068,-157.71801 -28.53604,-27.28276 m 123.29672,185.00077 -9.59474,-6.94279 m -113.70198,-178.05798 -31.98899,-24.51745 m 145.69097,202.57543 -10.17463,-3.37726 m -515.43078,382.68465 4e-4,0.33869 m -4.7e-4,-0.71297 7e-5,0.37428 m -0.0273,-0.0408 -0.006,-0.3785 m 0.0337,-0.36854 -3.9e-4,0.41358 m -0.0334,-0.045 -0.007,-0.41823 m 0.0417,-0.40732 -0.001,0.45701 m -0.0406,-0.0497 -0.007,-0.46213 m 0.0456,-0.77655 -10e-4,0.53677 m 0.007,-0.21039 -10e-4,0.50498 m -0.0496,-0.0548 -0.009,-0.51063 m 0.0566,-0.85921 -0.001,0.59329 m 0.009,-0.23161 -0.003,0.55799 m -0.0604,-0.0604 -0.0103,-0.5642 m 0.0703,-0.95079 -0.003,0.65578 m 0.0103,-0.25486 -0.004,0.61654 m -0.0738,-0.0667 -0.0118,-0.62338 m 0.087,-1.05226 -0.004,0.72485 m 0.0133,-0.28029 -0.006,0.68121 m -0.0901,-0.0735 -0.0133,-0.68874 m 0.10767,-1.16472 -0.007,0.8012 m 0.0171,-0.30807 -0.009,0.75263 m -0.10989,-0.081 -0.0161,-0.76091 m 0.13293,-1.28942 -0.009,0.88561 m 0.0214,-0.33839 -0.0103,0.83152 m -0.1341,-0.0893 -0.0186,-0.84062 m 0.1781,-0.82018 -0.0148,0.91861 m -0.16367,-0.0984 -0.0217,-0.92863 m 0.2186,-0.90631 -0.0188,1.01477 m -0.19978,-0.10846 -0.0253,-1.02579 m 0.26816,-1.00143 -0.0242,1.12091 m -0.24388,-0.11947 -0.0295,-1.13304 m 0.32881,-1.10645 -0.0312,1.23806 m -0.29771,-0.1316 -0.0346,-1.25139 m 0.403,-1.22236 -0.0396,1.3673 m -0.36344,-0.14494 -0.0408,-1.38197 m 0.49378,-1.35025 -0.0501,1.50986 m -0.44369,-0.15961 -0.0478,-1.52602 m 0.60478,-1.49127 -0.0631,1.66704 m -0.54169,-0.17577 -0.0566,-1.68486 m 0.74052,-1.64669 -0.0792,1.84028 m -0.66132,-0.19359 -0.0669,-1.85994 m 0.90647,-1.81786 -0.0991,2.03111 m -0.8074,-0.21325 -0.0793,-2.05284 m 1.10929,-2.00621 -0.12362,2.24119 m -0.98571,-0.23498 -0.0941,-2.26527 m 1.35714,-2.21322 -0.15375,2.47228 m -1.20339,-0.25906 -0.11195,-2.49905 m 1.65992,-2.44041 -0.19085,2.72624 m -1.46907,-0.28583 -0.13337,-2.75612 m 2.02974,-2.68935 -0.23642,3.00506 m -1.79332,-0.31571 -0.15926,-3.03856 m 2.48131,-2.9615 -0.29231,3.31071 m -2.189,-0.34921 -0.19036,-3.34852 m 3.03246,-3.25823 -0.36079,3.64525 m -2.67167,-0.38702 -0.2279,-3.68822 m 3.70494,-3.58067 -0.44458,4.01066 m -3.26036,-0.42999 -0.27314,-4.05993 m 4.52505,-3.92954 -0.54697,4.4088 m -3.97808,-0.47926 -0.32771,-4.46584 m 5.52464,-4.30501 -0.67188,4.84131 m -4.85276,-0.5363 -0.39352,-4.90807 m 6.74216,-4.70632 -0.824,5.30938 m -5.91816,-0.60306 -0.47289,-5.38843 m 8.22397,-5.1315 -1.00892,5.81361 m -7.21505,-0.68211 -0.56852,-5.90834 m 10.02563,-5.5768 -1.23314,6.35364 m -8.79249,-0.77684 -0.68367,-6.4686 m 12.2136,-6.03612 -1.5043,6.92792 m -10.7093,-0.8918 -0.82218,-7.06898 m 14.86699,-6.50011 -1.83121,7.53297 m -13.03578,-1.03286 -0.98843,-7.70797 m 18.07916,-6.95529 -2.22374,8.16315 m 370.0334,-501.38635 -35.30096,-20.73166 m -329.81911,505.14505 -2.69294,8.8096 m -18.07915,6.95529 -1.1876,-8.38219 m 522.5961,-292.59792 -10.57575,0.48426 m -486.81001,275.27133 -3.25065,9.45963 m -21.95969,7.3827 -1.42547,-9.08576 m 30.54501,-17.85228 -3.9092,10.09571 m -26.63581,7.75657 -1.70856,-9.80963 m 36.93404,-18.73722 -4.68047,10.69457 m -32.25357,8.04265 -2.04392,-10.54049 m 44.55295,-19.42304 -5.57499,11.22631 m -38.97796,8.19673 -2.43894,-11.25998 m 53.59214,-19.81703 -6.60025,11.65397 m -46.99189,8.16306 -2.90099,-11.94332 m 64.25187,-19.80718 -7.75874,11.93347 m 466.0451,-231.60077 -10.76913,4.45852 m -511.7691,235.01596 -3.43682,-12.55871 m 365.7335,-447.32986 -38.28985,-15.94896 m -250.70974,444.015515 -9.04522,12.014835 m -67.68869,7.24847 -4.05169,-13.06611 m 91.2299,-18.041566 -10.4443,11.844371 m -80.7856,6.197195 -4.74825,-13.417262 m 107.90565,-15.993276 -11.9275,11.368972 M 316.92879,-103.90089 306.1872,-95.55596 M -207.07707,92.072988 -212.60209,78.516437 M -85.71986,65.537697 -99.17142,76.079712 M 129.16652,-344.72246 88.401451,-355.00352 M -212.60209,78.516437 -218.97698,65.093682 M -70.761953,56.206719 -85.71986,65.537697 M 306.1872,-95.55596 295.68963,-83.60609 M -54.387122,48.481078 -70.761953,56.206719 m -148.215027,8.886963 -7.28319,-16.496485 m 189.495293,-5.861692 -17.622245,5.745573 M 88.401451,-355.00352 45.851398,-358.93606 M 295.68963,-83.60609 285.63116,-68.4968 M -18.145236,39.290971 -36.764877,42.735505 M 1.1506109,38.380626 -18.145236,39.290971 M 285.63116,-68.4968 276.17229,-50.79053 M 20.749852,40.122167 1.1506109,38.380626 M 45.851398,-358.93606 2.3443824,-356.12455 M 276.17229,-50.79053 267.43107,-31.11209 M 40.255528,44.501978 20.749852,40.122167 M 59.278081,51.374785 40.255528,44.501978 M 267.43107,-31.11209 259.48079,-10.09513 M 2.3443824,-356.12455 l -43.5583684,9.61297 m 300.694776,336.41645 -7.12807,21.757559 m 0,0 -6.31043,21.967894 m 0,0 -5.52525,21.73365 M -41.213986,-346.51158 -83.913924,-330.3904 M 240.51704,55.363973 235.72496,76.510818 m 0,0 -4.12295,20.296463 m 0,0 -3.52346,19.262719 m 0,0 -2.99452,18.11388 m 0,0 -2.53355,16.90534 m 0,0 -2.13587,15.68032 m -304.328534,-497.15994 -41.001416,22.01542 m 345.32995,475.14452 -1.79563,14.471 m 0,0 -1.5064,13.30036 m 0,0 -1.26188,12.18386 m -6.63087,115.48516 5.5e-4,-0.39511 m 0,0 1e-4,-0.43671 m -1.9e-4,0.39304 1e-5,-0.44079 m 1.8e-4,0.0478 -5.5e-4,-0.48276 m 3.7e-4,0.435 -6.7e-4,-0.48713 m 3e-4,0.0521 -0.001,-0.5336 m 0.001,0.48146 -0.002,-0.53833 m 4.7e-4,0.0569 -0.002,-0.58986 m 0.0763,-0.3706 -0.0109,0.62518 m -0.0633,0.27841 -0.003,-0.59491 m 6.6e-4,0.0619 -0.004,-0.65201 m 0.0926,-0.40968 -0.0124,0.6911 m -0.077,0.30868 -0.004,-0.65742 m 9.1e-4,0.0673 -0.006,-0.72077 m 0.11253,-0.4529 -0.0141,0.76398 m -0.0984,-0.31108 -0.008,-0.79676 m 0.013,1.45022 -0.006,-0.72648 m 0.12989,-1.22446 -0.0161,0.84458 m -0.12067,-0.34386 -0.0111,-0.88077 m 0.018,1.60451 -0.009,-0.80278 m 0.15683,-1.35537 -0.0184,0.93369 m -0.14789,-0.38005 -0.0149,-0.97365 m 0.0244,1.77538 -0.0116,-0.88708 m 0.18956,-1.5005 -0.0211,1.0322 m -0.16847,0.46828 -0.0155,-0.98021 m 0.22933,-1.66145 -0.0242,1.14118 m -0.2051,0.52028 -0.0204,-1.08308 m 0.27765,-1.84004 -0.0279,1.26166 m 0.0601,-2.65656 -0.0322,1.3949 m -0.27765,1.84004 -0.0266,-1.19671 m 0.37364,-3.58047 -0.0372,1.54224 m 6.39191,-104.61324 -1.05601,11.13115 m -5.67232,95.52031 -0.0343,-1.32218 m 0.45108,-3.96346 -0.0431,1.70517 m -0.40794,2.25829 -0.0439,-1.46074 m 0.5451,-4.38805 -0.0501,1.88533 m -0.49496,2.50273 -0.0558,-1.6137 m 0.6593,-4.85893 -0.0584,2.08457 m -0.60087,2.77436 -0.0706,-1.78253 m 0.79811,-5.38124 -0.0683,2.30484 m 0.14816,-4.8532 -0.0799,2.54836 m -0.79811,5.38124 -0.0888,-1.96884 m 5.96567,-87.37233 -0.88325,10.1474 m -4.02178,68.44663 -0.0938,2.81754 m -0.96686,5.96076 -0.11147,-2.17435 m 1.28241,-9.71897 -0.1103,3.11502 m 0.24033,-6.55869 -0.13003,3.44367 m -1.28241,9.71897 -0.13938,-2.40097 m 1.70543,-14.56828 -0.15361,3.80662 m 3.78145,-61.88795 -0.73867,9.23451 m -2.70737,44.63955 -0.1818,4.20727 m -1.70543,14.56828 -0.17379,-2.65073 m 2.27662,-20.774 -0.2156,4.64918 m 2.70737,-44.63955 -0.61784,8.39207 m -1.61781,26.46202 -0.25612,5.13628 m -2.27662,20.774 -0.21619,-2.92587 m 3.05362,-28.65694 -0.30469,5.67253 m 1.61781,-26.46202 -0.51705,7.61803 m -0.43304,6.9093 -0.36303,6.26216 m 0.79607,-13.17146 -0.43304,6.9093 m -3.41665,34.91911 -0.2683,-3.2287 m 0,0 -0.33234,-3.56176 m 0,0 -0.41092,-3.92764 m 0,0 -0.50724,-4.32911 m 0,0 -0.62516,-4.76889 m 0,0 -0.76935,-5.2497 m 0,0 -0.94544,-5.77412 m 0,0 -1.16007,-6.34438 m 0,0 -1.42137,-6.96225 m 0,0 -1.73873,-7.62864 m 0,0 -2.12329,-8.34327 m 0,0 -2.58803,-9.10417 m 0,0 -3.14776,-9.90704 m 0,0 -3.81924,-10.74443 m 0,0 -4.6209,-11.60481 m 0,0 -5.57249,-12.47144 m 0,0 -6.69414,-13.32111 m -296.35876,-476.17986 -38.59489,27.04308 m 334.95372,449.13677 -8.00513,-14.12287 m 0,0 -9.52182,-14.83709 m 0,0 -11.25484,-15.4146 m 0,0 -13.20566,-15.79685 m 0,0 -15.36207,-15.91779 m -277.60413,-373.04759 -35.65376,31.04209 M 114.0939,91.71567 96.4001,76.008951 m 0,0 -20.148242,-15.094407 m 0,0 -22.647851,-14.02108 M -199.16399,-250.28982 -231.53225,-216.3421 M 53.604007,46.893464 28.513731,34.446868 m 0,0 L 1.1608018,24.08569 m 0,0 -29.3021878,-7.794939 M -231.53225,-216.3421 l -28.92242,35.78305 M -28.141386,16.290751 -58.948937,11.46793 m 0,0 -31.758483,-1.563037 m -169.74725,-190.463943 -25.47684,36.63917 m 195.22409,153.824773 -32.0804,1.831945 m -163.14369,-155.656718 -22.15873,36.65127 m 185.30242,119.005448 -31.74689,5.192116 m 0,0 -30.78402,8.35002 m -122.77151,-132.547584 -19.05891,35.97547 m 141.83042,96.572114 -29.26603,11.160708 m -112.56439,-107.732822 -16.23387,34.76996 m 128.79826,72.962862 -27.30359,13.517028 m -101.49467,-86.47989 -13.71124,33.18202 m 115.20591,53.29787 -25.02746,15.357274 m 0,0 -22.57184,16.665242 m -67.60661,-85.320386 -11.49612,31.33999 m 79.10273,53.980396 -20.05995,17.463592 m -59.04278,-71.443988 -9.57797,29.350395 m 68.62075,42.093593 -17.59467,17.803572 m -51.02608,-59.897165 -7.93595,27.297677 m 58.96203,32.599488 -15.25404,17.75347 m -77.6189,223.44308 0.0103,0.48998 m 0.0118,-0.48617 0.006,0.48931 m -0.0374,-1.0348 0.0103,0.54167 m 0.0158,-0.53701 0.006,0.54083 m -0.0425,-1.14431 0.0103,0.59882 m 0.021,-0.59313 0.004,0.59779 m -0.0485,-1.26547 0.0118,0.66199 m 0.0273,-0.65505 0.004,0.66074 m -0.0554,-1.39953 0.0118,0.73185 m 0.0353,-0.72339 0.003,0.73033 m -0.0634,-1.54791 0.0118,0.80912 m 0.0455,-0.79882 0.001,0.80728 m -0.0728,-1.71213 0.0133,0.89455 m 0.0579,-0.882 2e-5,0.8923 m 33.91021,-270.462878 -6.54377,25.245868 m -27.45013,243.32311 0.0133,0.98905 m 0.0736,-0.97375 -0.003,0.9863 m -0.0964,-2.09514 0.0133,1.09354 m 0.0928,-1.07491 -0.006,1.09021 m -0.11683,-1.14604 0.0159,1.09587 m -0.0103,-2.26778 0.0118,1.20911 m 0.11653,-1.18643 -0.0103,1.20506 m 77.60918,-217.14112 -13.0909,17.38885 m -64.65756,198.48498 0.0161,1.21146 m -0.006,-2.50883 0.0118,1.33692 m -0.0213,-2.8152 0.0103,1.47828 m 0.15743,0.0276 -0.0171,1.332 m -0.16629,-1.4015 0.0159,1.33927 m 0.1924,-2.74207 -0.025,1.4723 m -0.19886,-1.55011 0.0155,1.48061 m 0.24337,-3.03016 -0.035,1.62736 m -0.23819,-1.71472 0.0148,1.63691 m 0.30645,-3.34824 -0.0476,1.79869 m -0.28576,-1.8971 0.0133,1.80974 m 0.38445,-3.69932 -0.0637,1.98799 m -0.34326,-2.09929 0.0103,2.00088 m 0.48079,-4.08667 -0.0837,2.19709 m -0.41294,-2.32356 0.006,2.21226 m 0.59959,-4.51383 -0.10899,2.42804 m -0.49728,-2.57252 5.9e-4,2.44605 m 0.74601,-4.98457 -0.14046,2.683 m -0.59955,-2.84908 -0.007,2.7046 m 0.92611,-5.5029 -0.17952,2.96438 m -0.72363,-3.15661 -0.0162,2.99053 m 1.1476,-6.07304 -0.22815,3.27474 m -0.87413,-3.49901 -0.0291,3.30678 m 64.70945,-179.86412 -11.1357,16.78393 m -52.1541,156.3808 -0.28836,3.61688 m -1.05684,-3.88075 -0.0455,3.65648 m 27.51956,-219.05327 -5.3727,23.2418 m -20.3934,188.42515 -0.36283,3.99371 m -1.27862,-4.30706 -0.0666,4.04319 m 2.16278,-8.13822 -0.45475,4.40838 m -1.54793,-4.78409 -0.0935,4.47074 m 2.66415,-8.9591 -0.56795,4.86408 m -1.87492,-5.31912 -0.12776,4.9434 m 3.27773,-9.85243 -0.7071,5.36407 m 50.76857,-143.11464 -9.40041,16.00677 m -43.64009,121.18705 -0.17094,5.46578 m 4.02784,-10.82064 -0.87787,5.91161 m -2.75375,-6.59969 -0.22528,6.04294 m 21.64263,-173.23188 -4.39419,21.31769 m -12.30457,140.04958 -1.08697,6.50975 m -3.33834,-7.36842 -0.29328,6.68034 m 6.06099,-12.98279 -1.3424,7.16112 m 38.69622,-109.32244 -7.8835,15.11621 m -34.85986,85.96365 -0.37817,7.38391 m 7.42153,-14.17022 -1.65382,7.86777 m -4.90568,-9.24137 -0.48386,8.15991 m 9.07573,-15.41699 -2.03237,8.63068 m 9.30835,-125.02069 -3.58106,19.49448 m 22.08921,26.34887 -6.57402,14.16051 m -16.71903,46.93682 -2.49108,9.44933 m -7.97691,-1.75798 -0.61496,9.01506 m 14.12794,-27.02749 -3.04499,10.32108 m 16.71903,-46.93682 -5.45529,13.17793 m -20.95442,31.49396 -0.77731,9.95628 m 17.22395,-29.25275 -3.71097,11.24032 m 8.21875,-23.43781 -4.50778,12.19749 m -5.55212,-65.8848 -2.90867,17.78432 m -7.00803,56.40628 -0.97782,10.99067 m 2.20262,-23.11596 -1.2248,12.12529 m 7.00803,-56.40628 -2.35478,16.19294 m -1.90021,14.72121 -1.52824,13.36684 m 3.42845,-28.08805 -1.90021,14.72121"
     style="fill:none;stroke-linecap:round;stroke-opacity:1"
     id="face-path" />
</svg>
