<?xml version="1.0" encoding="UTF-8" standalone="no"?>
<svg
   xmlns:dc="http://purl.org/dc/elements/1.1/"
   xmlns:cc="http://creativecommons.org/ns#"
   xmlns:rdf="http://www.w3.org/1999/02/22-rdf-syntax-ns#"
   xmlns:svg="http://www.w3.org/2000/svg"
   xmlns="http://www.w3.org/2000/svg"
   xmlns:sodipodi="http://sodipodi.sourceforge.net/DTD/sodipodi-0.dtd"
   xmlns:inkscape="http://www.inkscape.org/namespaces/inkscape"
   viewBox="-540 -540 1080 1080"
   width="1080"
   height="1080"
   style=""
   stroke="#000000"
   stroke-width="75"
   version="1.1"
   id="svg835"
   sodipodi:docname="edge.svg"
   inkscape:version="1.0.2 (e86c8708, 2021-01-15)">
  <metadata
     id="metadata841">
    <rdf:RDF>
      <cc:Work
         rdf:about="">
        <dc:format>image/svg+xml</dc:format>
        <dc:type
           rdf:resource="http://purl.org/dc/dcmitype/StillImage" />
        <dc:title></dc:title>
      </cc:Work>
    </rdf:RDF>
  </metadata>
  <defs
     id="defs839" />
  <sodipodi:namedview
     pagecolor="#ffffff"
     bordercolor="#666666"
     borderopacity="1"
     objecttolerance="10"
     gridtolerance="10"
     guidetolerance="10"
     inkscape:pageopacity="0"
     inkscape:pageshadow="2"
     inkscape:window-width="1440"
     inkscape:window-height="792"
     id="namedview837"
     showgrid="false"
     inkscape:zoom="0.54156118"
     inkscape:cx="540"
     inkscape:cy="540"
     inkscape:window-x="0"
     inkscape:window-y="25"
     inkscape:window-maximized="1"
     inkscape:current-layer="svg835" />
  <path
     d="m 380.77089,4.638111 0.0504,-0.501493 m 0,0 0.055,-0.554135 m 0,0 0.0599,-0.612319 m 0,0 0.0652,-0.676563 m 0,0 0.0707,-0.747536 m 0,0 0.0767,-0.825942 m 0,0 0.0828,-0.912545 m 0,0 0.0893,-1.008163 m 0,0 0.0957,-1.113741 m 0,0 0.10243,-1.230334 m 0,0 0.10901,-1.359044 m 0,0 0.11517,-1.501091 m 0,0 0.12104,-1.657872 m 0,0 0.12608,-1.830814 m 0,0 0.12985,-2.021586 m 0,0 0.13196,-2.231919 m 0,0 0.13154,-2.463733 m 0,0 0.12804,-2.719096 m 0,0 0.1202,-3.00025 m 0,0 0.10691,-3.309585 m 0,0 0.0862,-3.64962 m 0,0 0.0561,-4.0231 m 0,0 0.0141,-4.43271 m 0,0 -0.043,-4.88137 m 0,0 -0.11936,-5.37187 m 0,0 -0.2198,-5.90695 m 0,0 -0.35055,-6.48909 m 0,0 -0.51907,-7.12029 m 0,0 -0.73449,-7.80187 m 0,0 -1.00805,-8.53399 m 0,0 -1.35324,-9.31532 m 0,0 -1.78635,-10.14223 m 0,0 -2.32672,-11.00803 m 0,0 -2.9972,-11.90193 m 0,0 -3.82424,-12.80763 m 0,0 -4.83793,-13.7019 m 0,0 -6.07151,-14.55264 m 0,0 -7.56056,-15.31696 m 0,0 -9.34063,-15.93945 m 0,0 -11.44463,-16.3505 m 0,0 -13.89754,-16.46626 m 0,0 -16.7102,-16.18996 m 0,0 -19.87091,-15.4162 m 0,0 -23.33611,-14.03958 m 0,0 -27.02117,-11.9674 m 0,0 -30.79422,-9.13722 m 0,0 -34.47552,-5.53691 m 0,0 -37.84618,-1.2233 m 0,0 -40.668018,3.66518 m -462.722862,605.49391 0.0865,0.56877 m -0.18091,-1.19806 0.0945,0.62929 m -0.19755,-1.32563 0.10313,0.69634 m -0.21542,-1.46695 0.11236,0.77061 m -0.23455,-1.62354 0.12216,0.85293 m -0.25486,-1.7971 0.13266,0.94417 m -0.2763,-1.98952 0.14365,1.04535 m -0.29882,-2.20293 0.15517,1.15758 m -0.32231,-2.43967 0.16714,1.28209 m -0.34648,-2.70236 0.17935,1.42027 m -0.37093,-2.99401 0.19159,1.57374 m -0.39534,-3.31788 0.20375,1.74414 m -0.41903,-3.67769 0.21528,1.93355 m -0.44116,-4.07764 0.22588,2.14409 m -0.46072,-4.52235 0.23484,2.37826 m -0.47629,-5.01708 0.24145,2.63882 m -0.48611,-5.56771 0.24466,2.92889 m -0.48785,-6.18086 0.24319,3.25197 m -0.47863,-6.86393 0.23544,3.61196 m -0.45484,-7.62523 0.2194,4.01327 m -0.41178,-8.47406 0.19238,4.46079 m 466.188378,-570.47659 -42.713408,8.90986 m -423.81859,552.14592 0.15124,4.96002 m -0.24319,-10.47706 0.0919,5.51704 m -0.10131,-11.65562 0.01,6.13858 m 0.0931,-12.97063 -0.10244,6.83205 m 0.35387,-14.43754 -0.25144,7.60549 m 0.69834,-16.07301 -0.4469,8.46752 m 1.14728,-17.89477 -0.70038,9.42725 m 423.118474,-517.58524 -43.80047,14.22872 m -377.592404,483.43528 -1.02596,10.49399 m 2.46635,-22.17088 -1.44039,11.67689 m 3.40431,-24.66127 -1.96392,12.98438 m 4.58422,-27.4077 -2.6203,14.42332 m 374.188094,-458.77401 -43.825241,19.30986 m -324.305333,409.04313 -3.43722,15.9977 m 7.8833,-33.70472 -4.44608,17.70702 m 10.1279,-37.25112 -5.68182,19.5441 m 319.859253,-391.33611 -42.781578,23.85449 M -353.59711,91.549717 -360.77846,113.0417 m 16.16336,-45.012686 -8.98201,23.520703 m 264.214505,-326.445537 -40.762705,27.61913 M -333.49736,42.445799 -344.6151,68.029014 m 24.73177,-53.194383 -13.61403,27.611168 m 203.35205,-249.722489 -37.94375,30.44597 m -135.31306,162.153695 -16.48121,29.511656 m 151.79427,-191.665351 -34.55082,32.27567 m -81.05676,98.71235 -19.70548,31.165675 m 100.76224,-129.878025 -30.82523,33.14018 m -26.99225,33.14257 -23.23928,32.4296 m 50.23153,-65.57217 -26.99225,33.14257"
     style="fill:none;stroke-linecap:round;stroke-opacity:1"
     id="edge-path" />
</svg>
