<?xml version="1.0" encoding="UTF-8" standalone="no"?>
<svg
   xmlns:dc="http://purl.org/dc/elements/1.1/"
   xmlns:cc="http://creativecommons.org/ns#"
   xmlns:rdf="http://www.w3.org/1999/02/22-rdf-syntax-ns#"
   xmlns:svg="http://www.w3.org/2000/svg"
   xmlns="http://www.w3.org/2000/svg"
   xmlns:sodipodi="http://sodipodi.sourceforge.net/DTD/sodipodi-0.dtd"
   xmlns:inkscape="http://www.inkscape.org/namespaces/inkscape"
   viewBox="-590.5 -394.5 600 600"
   width="600"
   height="600"
   version="1.1"
   id="svg1631"
   sodipodi:docname="edge.svg"
   inkscape:version="1.0.2 (e86c8708, 2021-01-15)">
  <metadata
     id="metadata1637">
    <rdf:RDF>
      <cc:Work
         rdf:about="">
        <dc:format>image/svg+xml</dc:format>
        <dc:type
           rdf:resource="http://purl.org/dc/dcmitype/StillImage" />
        <dc:title />
      </cc:Work>
    </rdf:RDF>
  </metadata>
  <defs
     id="defs1635" />
  <sodipodi:namedview
     pagecolor="#ffffff"
     bordercolor="#666666"
     borderopacity="1"
     objecttolerance="10"
     gridtolerance="10"
     guidetolerance="10"
     inkscape:pageopacity="0"
     inkscape:pageshadow="2"
     inkscape:window-width="1005"
     inkscape:window-height="608"
     id="namedview1633"
     showgrid="false"
     inkscape:zoom="0.35844207"
     inkscape:cx="326.66508"
     inkscape:cy="324.66134"
     inkscape:window-x="355"
     inkscape:window-y="58"
     inkscape:window-maximized="0"
     inkscape:current-layer="svg1631"
     inkscape:document-rotation="0" />
  <path
     d="m -75.90772,-171.68796 -0.02874,-0.29763 m 0,0 -0.03226,-0.32871 m 0,0 -0.03614,-0.36303 m 0,0 -0.04051,-0.40089 m 0,0 -0.0455,-0.44265 m 0,0 -0.05115,-0.48875 m 0,0 -0.05761,-0.53953 m 0,0 -0.06497,-0.59558 m 0,0 -0.07341,-0.6573 m 0,0 -0.08307,-0.72534 m 0,0 -0.09424,-0.80027 m 0,0 -0.107048,-0.88276 m 0,0 -0.121846,-0.97354 m 0,0 -0.138999,-1.07337 m 0,0 -0.158936,-1.18308 m 0,0 -0.182112,-1.30359 m 0,0 -0.209202,-1.43581 m 0,0 -0.240849,-1.58078 m 0,0 -0.277969,-1.7395 m 0,0 -0.321573,-1.91306 m 0,0 -0.372914,-2.10257 m 0,0 -0.433525,-2.30906 m 0,0 -0.505177,-2.53361 m 0,0 -0.590017,-2.77712 m 0,0 -0.690705,-3.04037 m 0,0 -0.810292,-3.3239 m 0,0 -0.952522,-3.62785 m 0,0 -1.121821,-3.95186 m 0,0 -1.32348,-4.29484 m 0,0 -1.563702,-4.65472 m 0,0 -1.849825,-5.02817 m 0,0 -2.190319,-5.4101 m 0,0 -2.59508,-5.79326 m 0,0 -3.07518,-6.1676 m 0,0 -3.64305,-6.51959 m 0,0 -4.312107,-6.83153 m 0,0 -5.09639,-7.08061 m 0,0 -6.00971,-7.2384 m 0,0 -7.0645,-7.27015 m 0,0 -8.26985,-7.13504 m 0,0 -9.62931,-6.78668 m 0,0 -11.13763,-6.1752 m 0,0 -12.77738,-5.25077 m 0,0 -14.51512,-3.96915 m 0,0 -16.29868,-2.29906 m 0,0 -18.05612,-0.23102 m 0,0 -19.69696,2.21342 m 0,0 -21.11848,4.97462 m 0,0 -22.21568,7.95243 m 0,0 -22.89463,11.01031 m 0,0 -23.087,13.98734 m 0,0 -22.7626,16.71733 m 0,0 -21.93545,19.05024 m 0,0 -20.66252,20.87216 m 0,0 -19.03496,22.11829 m -92.61766,314.1857 0.0801,0.34888 m -0.16817,-0.73496 0.0881,0.38608 m -0.18468,-0.81345 0.0966,0.42737 m -0.20241,-0.90041 0.10579,0.47304 m -0.22167,-0.99678 0.11588,0.52374 m -0.24247,-1.10374 0.12659,0.58 m -0.26479,-1.22241 0.1382,0.64241 m -0.28895,-1.35404 0.15075,0.71163 m -0.31491,-1.50019 0.1642,0.78856 m -0.34243,-1.66252 0.17826,0.87396 m -0.37165,-1.84292 0.19324,0.96896 m -0.40241,-2.04353 0.20914,1.07457 m -0.43458,-2.26656 0.22534,1.19199 m -0.46781,-2.51475 0.24247,1.32276 m -0.50173,-2.79115 0.25929,1.46839 m 94.6521,-304.22063 -17.16378,22.77641 m -78.02411,278.34514 0.27641,1.63069 m -0.5693,-3.44227 0.29292,1.81158 m -0.60113,-3.82509 0.30821,2.01351 m -0.6299,-4.25236 0.32169,2.23885 m -0.65411,-4.72937 0.33242,2.49052 m -0.6713,-5.26244 0.33888,2.77192 m -0.67867,-5.85829 0.33979,3.08637 m -0.67265,-6.52451 0.33286,3.43814 m -0.64856,-7.2698 0.3157,3.83166 m 80.29088,-260.49425 -15.16431,22.88175 m -65.72727,229.50888 0.28497,4.27196 m -0.52178,-9.036376 0.23666,4.764416 m -0.40303,-10.079359 0.16634,5.314943 m -0.2333,-11.244897 0.0673,5.929954 m 6.4e-4,-12.545855 -0.0679,6.615901 m 66.19741,-213.499567 -13.14267,22.50494 m -52.7394,176.999276 -0.24767,7.37945 m 0.73031,-15.60632 -0.48274,8.22687 m 1.26883,-17.390658 -0.78609,9.163788 m 52.25667,-168.772406 -11.18656,21.73752 m -39.11176,127.676984 -1.17226,10.194114 m 2.83022,-21.513494 -1.65796,11.31938 m 39.11176,-127.676984 -9.36039,20.677619 m -25.83174,83.142783 -2.26167,12.537202 m 5.26486,-26.37688 -3.00319,13.839678 m 25.83174,-83.142783 -7.70555,19.419586 m -11.22058,34.672378 -3.90242,15.211141 m 15.123,-49.883519 -6.24299,18.046337 m 0,0 -4.97759,16.626041"
     style="fill:none;stroke:#000000;stroke-width:25;stroke-linecap:round;stroke-opacity:1"
     id="path1629" />
</svg>
