<?xml version="1.0" encoding="UTF-8" standalone="no"?>
<svg
   xmlns:dc="http://purl.org/dc/elements/1.1/"
   xmlns:cc="http://creativecommons.org/ns#"
   xmlns:rdf="http://www.w3.org/1999/02/22-rdf-syntax-ns#"
   xmlns:svg="http://www.w3.org/2000/svg"
   xmlns="http://www.w3.org/2000/svg"
   xmlns:sodipodi="http://sodipodi.sourceforge.net/DTD/sodipodi-0.dtd"
   xmlns:inkscape="http://www.inkscape.org/namespaces/inkscape"
   viewBox="-590.5 -394.5 600.00001 600"
   width="600"
   height="600"
   version="1.1"
   id="svg835"
   sodipodi:docname="face.svg"
   inkscape:version="1.0.2 (e86c8708, 2021-01-15)">
  <metadata
     id="metadata841">
    <rdf:RDF>
      <cc:Work
         rdf:about="">
        <dc:format>image/svg+xml</dc:format>
        <dc:type
           rdf:resource="http://purl.org/dc/dcmitype/StillImage" />
        <dc:title></dc:title>
      </cc:Work>
    </rdf:RDF>
  </metadata>
  <defs
     id="defs839" />
  <sodipodi:namedview
     pagecolor="#ffffff"
     bordercolor="#666666"
     borderopacity="1"
     objecttolerance="10"
     gridtolerance="10"
     guidetolerance="10"
     inkscape:pageopacity="0"
     inkscape:pageshadow="2"
     inkscape:window-width="1440"
     inkscape:window-height="792"
     id="namedview837"
     showgrid="false"
     inkscape:zoom="0.57616909"
     inkscape:cx="590.5"
     inkscape:cy="394.5"
     inkscape:window-x="0"
     inkscape:window-y="25"
     inkscape:window-maximized="1"
     inkscape:current-layer="svg835" />
  <path
     d="m -520.8457,-1.836294 0.008,0.27139 m -0.0166,-0.571298 0.009,0.299908 m -0.003,-0.577475 0.008,0.326452 m -0.0215,-0.380293 0.009,0.331408 m -0.002,-0.638351 0.008,0.360784 m -0.0248,-0.420049 0.0105,0.366208 m -3.9e-4,-0.705646 0.008,0.398703 m -0.0288,-0.463918 0.0105,0.404653 m 0.002,-0.78005 0.008,0.440612 m -0.0334,-0.51235 0.0121,0.447135 m 0.006,-0.862333 0.008,0.486936 m -0.039,-0.56577 0.0136,0.494032 m 0.009,-0.953309 0.008,0.538111 m -0.0456,-0.624718 0.0151,0.545884 m 0.0154,-1.053941 0.008,0.594664 m -0.0535,-0.689707 0.0158,0.6031 m 0.0226,-1.165194 0.008,0.657137 m -0.0627,-0.761384 0.017,0.666341 m 0.0319,-1.288257 0.006,0.726163 m -0.0737,-0.840384 0.0184,0.736137 m 0.0437,-1.424337 0.005,0.802421 m -0.0869,-0.927458 0.0197,0.813237 m 0.0586,-1.574878 0.003,0.886678 m -0.10274,-1.023375 0.0211,0.898338 m 0.0773,-1.741373 9.5e-4,0.979732 m -0.12172,-1.128963 0.0224,0.992266 m 0.10079,-1.925554 -0.003,1.082519 m 0.009,-2.278535 -0.008,1.196016 m -0.14688,-0.162654 0.0237,1.095942 m 0.14296,-3.450629 -0.0136,1.321325 m -0.17867,-0.17698 0.0249,1.210342 m 0.18728,-3.814365 -0.0206,1.459678 m -0.21747,-0.19215 0.0259,1.336495 m 0.24271,-4.216397 -0.0306,1.612374 m -0.2648,-0.208089 0.0267,1.475617 m 0.31186,-4.660715 -0.0432,1.780813 m -0.32253,-0.224675 0.0271,1.62896 m 0.39795,-5.151704 -0.0593,1.966606 m -0.39292,-0.241773 0.0271,1.797911 m 0.50491,-5.694154 -0.0798,2.17141 m -0.47879,-0.259082 0.0265,1.983915 m 0.63746,-6.293322 -0.10545,2.397079 m -0.58355,-0.276256 0.025,2.188584 m 0.80152,-6.954963 -0.13754,2.645556 m -0.71131,-0.292767 0.0223,2.41359 m 1.00424,-7.685269 -0.17773,2.91889 m -0.86715,-0.307937 0.0182,2.660726 m 1.25434,-8.491004 -0.22775,3.219325 m -1.05727,-0.320863 0.0121,2.931816 m 1.56251,-9.37937 -0.28988,3.549092 m -1.28913,-0.330279 0.005,3.228741 m 1.94176,-10.358062 -0.36687,3.910508 m 0.82889,-8.216374 -0.46202,4.305866 m -1.93875,3.575907 -0.008,3.553414 m 2.98718,-16.172567 -0.57928,4.73738 m -2.37868,3.974141 -0.0221,3.907632 m 3.70366,-17.826159 -0.72361,5.207006 m -2.91621,4.41849 -0.0417,4.293031 m 4.5822,-19.63478 -0.90064,5.716253 m -3.57261,4.91448 -0.0672,4.711016 m 5.65778,-21.607805 -1.11732,6.266056 m -4.37339,5.468243 -0.0999,5.16249 m 6.97234,-23.753199 -1.38177,6.85641 m -5.34932,6.08662 -0.14146,5.647679 m 8.57591,-26.076569 -1.70344,7.48586 m -6.53734,6.77716 -0.19375,6.16587 m 10.52792,-28.58006 -2.09339,8.15117 m -7.98146,7.54811 -0.25932,6.71491 m 12.8982,-31.26065 -2.56403,8.84646 m -9.73399,8.40843 -0.34086,7.29085 m 15.76822,-34.108318 -3.12934,9.562578 m -11.85651,9.36764 -0.44151,7.88725 m 19.23172,-37.103478 -3.80436,10.28601 m 8.40916,-21.28393 -4.6048,10.99792 m -18.22531,20.721728 -0.5649,8.4945 m 28.94106,-51.887098 -5.54605,11.67295 m -22.11514,22.62072 -0.71497,9.098928 m 35.01793,-55.670958 -6.64177,12.27836 m -26.76526,24.61178 -0.89593,9.68189 m 42.20493,-59.34521 -7.90197,12.77318 m -32.29497,26.67115 -1.11206,10.21899 m 50.63923,-62.77162 -9.33023,13.1083 m -38.82959,28.76533 -1.36735,10.679 m 60.44769,-65.78023 -10.92052,13.2276 m -46.49477,30.84993 -1.66505,11.0237 m 3.67206,-22.23177 -2.00701,11.20807 m 4.39987,-22.38949 -2.39286,11.18142 m 5.21196,-22.07176 -2.8191,10.89034 m 6.09723,-21.1734 -3.27813,10.28306 m 7.03565,-19.59917 -3.75752,9.31611 m 7.99736,-17.27824 -4.23984,7.96213 m 8.94272,-14.1805 -4.70288,6.21837 m 9.82426,-10.33224 -5.12138,4.11387 m 230.30764,-38.85381 4.26386,1.15462 m -8.54608,-2.24338 4.28222,1.08876 m -8.58176,-2.11138 4.29954,1.02262 m -8.61544,-1.97882 4.3159,0.9562 m -8.64712,-1.84568 4.33122,0.88948 m -8.67675,-1.71204 4.34553,0.82256 m -8.70435,-1.57793 4.35882,0.75537 m -8.72993,-1.44335 4.37111,0.68798 m -8.75348,-1.30831 4.38237,0.62033 m -8.77496,-1.17289 4.39259,0.55256 m -8.79437,-1.03712 4.40178,0.48456 m -8.81173,-0.90099 4.40995,0.41643 m -8.82699,-0.76455 4.41704,0.34812 m -8.84016,-0.62781 4.42312,0.27969 m -8.85128,-0.49085 4.42816,0.21116 m -8.86028,-0.35369 4.43212,0.14252 m -8.86717,-0.21632 4.43505,0.0738 m -8.87199,-0.0788 4.43694,0.005 m -8.8747,0.0589 4.43776,-0.0639 m -8.87526,0.19664 4.4375,-0.13272 m -8.87369,0.33442 4.43619,-0.20167 m -8.87005,0.47225 4.43386,-0.27058 m -8.86428,0.61009 4.43042,-0.33951 m -8.85638,0.74788 4.42596,-0.40837 m -8.84635,0.88561 4.42039,-0.47724 m -8.83417,1.02323 4.41378,-0.54599 m -8.81988,1.16072 4.4061,-0.61473 m -8.8035,1.29808 4.3974,-0.68335 m -8.78497,1.43521 4.38757,-0.75186 m -8.76428,1.5721 4.37671,-0.82024 m -8.7415,1.70876 4.36479,-0.88852 m -8.71655,1.84513 4.35176,-0.95661 m -8.68952,1.98114 4.33776,-1.02453 m -8.6604,2.11681 4.32264,-1.09228 m -8.62912,2.2521 4.30648,-1.15982 m -8.59571,2.38694 4.28923,-1.22712 m -8.56024,2.52135 4.27101,-1.29423 m -8.52266,2.65526 4.25165,-1.36103 m -8.48293,2.78862 4.23128,-1.42759 m 208.21193,12.53649 -21.98855,-9.78254 m -194.66452,0.16752 4.20986,-1.49388 m -8.39729,3.05372 4.18743,-1.55984 m -8.35134,3.18532 4.16391,-1.62548 m -8.3033,3.3163 4.13939,-1.69082 m -8.25319,3.44661 4.1138,-1.75579 m -8.20105,3.57616 4.08725,-1.82037 m -8.14687,3.70495 4.05962,-1.88458 m -8.09061,3.83299 4.03099,-1.94841 m -8.03234,3.96021 4.00135,-2.0118 m -7.97207,4.08657 3.97072,-2.07477 m -7.9098,4.21204 3.93908,-2.13727 m -7.84549,4.33662 3.90641,-2.19935 m -7.77921,4.46025 3.8728,-2.2609 m -7.71098,4.58288 3.83818,-2.32198 m -0.84076,2.17875 -5.46919,1.71314 m 291.98533,-5.43794 -20.54956,-11.80831 m 39.40783,25.19301 -18.85827,-13.3847 m -280.79348,4.61033 -5.72266,-0.88553 m 322.39286,24.15661 -17.01845,-14.49671 m 32.14471,29.66074 -15.12626,-15.16403 m 28.38901,30.59611 -13.26275,-15.43208 m 24.75248,30.79358 -11.48973,-15.3615 m -339.19546,-50.3093 -5.86375,-3.55789 m 366.3983,84.2478 -9.84936,-15.01911 m 18.215464,29.48977 -8.366104,-14.47066 m 15.41614,28.24675 -7.050036,-13.77609 m 12.950379,26.762878 -5.900343,-12.986788 m 10.809249,25.131718 -4.908906,-12.14493 m 26.361182,136.258032 0.0045,-0.251071 m 0,0 0.0045,-0.277459 m 0,0 0.0045,-0.306613 m 0,0 0.0045,-0.338829 m 0,0 0.0045,-0.374423 m 0,0 0.0045,-0.413752 m 0.01205,0.03917 0.0075,-0.453935 m -0.01989,0.41476 0.0045,-0.4572 m 0.01537,0.04244 0.0075,-0.501781 m -0.0229,0.45934 0.0045,-0.505197 m 0.01898,0.04586 0.0075,-0.554693 m 0,0 0.0075,-0.613182 m -0.03344,1.122018 0.003,-0.558221 m 0.03043,-0.563797 0.006,-0.67787 m -0.03691,1.241667 0.0015,-0.616788 m 0.03525,-0.624879 0.006,-0.749382 m -0.04067,1.374261 -1.66e-4,-0.681471 m 0.04082,-0.69279 0.0045,-0.828453 m -0.04489,1.521243 -0.003,-0.752898 m 0.04745,-0.768345 0.0015,-0.915903 m -0.04941,1.684248 -0.006,-0.831782 m 0.05529,-0.852466 -9.34e-4,-1.012574 m -0.05438,1.86504 -0.01055,-0.918841 m 0.06463,-0.946199 -0.0045,-1.119487 m -17.47782,-103.4797 -4.063054,-11.28358 m 21.476938,116.828546 -0.01582,-1.014938 m 0.07577,-1.050748 -0.01054,-1.237685 m 0,0 -0.01642,-1.368402 m -0.04956,3.656835 -0.02305,-1.120979 m 0.07246,-2.535856 -0.02486,-1.512887 m -0.0476,4.048743 -0.03209,-1.237957 m 0.07969,-2.810786 -0.03585,-1.672648 m -0.04384,4.483434 -0.04369,-1.36694 m 0.08753,-3.116494 -0.04971,-1.849221 m -0.03781,4.965715 -0.0583,-1.509106 m 0.09611,-3.456609 -0.06734,-2.044369 m 0,0 -0.08948,-2.259991 m 0.06071,7.760969 -0.07653,-1.665703 m -13.816615,-87.201774 -3.347721,-10.427569 m 17.180184,91.534077 -0.117354,-2.498148 m 0.101536,8.593414 -0.09958,-1.838074 m -0.0015,-6.75534 -0.152199,-2.761087 m 0,0 -0.19569,-3.051234 m 0.349878,12.567661 -0.128201,-2.027707 M -60.46466,12.213326 -60.714327,8.842164 m -10.370189,-59.830022 -2.747319,-9.594855 m 13.117508,69.424877 -0.316675,-3.723646 m 0.788019,17.634762 -0.163798,-2.236023 M -61.031,5.118518 -61.430591,1.007031 m 1.023812,19.510226 -0.207999,-2.464689 m -0.807784,-17.045115 -0.501925,-4.537697 m -6.905596,-38.659516 -2.246402,-8.797676 m 9.151998,47.457192 -0.627927,-5.005124 m -4.446947,-25.610538 -1.830722,-8.043854 m 6.277669,33.654392 -0.782746,-5.516646 m 2.728412,32.105018 -0.262713,-2.715245 m -2.465699,-29.389773 -0.972517,-6.074717 m -1.204467,-6.681388 -1.487217,-7.337787 m 2.691684,14.019175 -1.204467,-6.681388 m 4.642683,42.145878 -0.330249,-2.989287 m 0,0 -0.413495,-3.288382 m 0,0 -0.515816,-3.61387 m 0,0 -0.641304,-3.966895 m 0,0 -0.794858,-4.348153 m -398.546367,-207.325402 -5.88297,-6.16759 m 404.429337,213.492992 -0.982158,-4.757717 m 0,0 -1.210011,-5.194774 m 0,0 -1.486193,-5.657275 m 0,0 -1.819634,-6.141499 m 0,0 -2.22028,-6.641512 m 0,0 -2.699066,-7.148529 m 0,0 -3.267412,-7.650243 m 0,0 -3.936781,-8.130009 m 0,0 -4.71766,-8.566162 m 0,0 -5.618242,-8.931544 m -364.80824,-129.923748 -5.78069,-8.58239 m 370.58893,138.506138 -6.642626,-9.19323 m 0,0 -7.788604,-9.31331 m 0,0 -9.045,-9.2502 m 0,0 -10.38921,-8.961598 m -325.37587,-82.51492 -5.56693,-10.69049 m 330.9428,93.20541 -11.78492,-8.40882 m 0,0 -13.18161,-7.56254 m -295.14967,-54.13133 -5.25967,-12.41223 m 300.40934,66.54356 -14.51535,-6.40921 m 0,0 -15.71299,-4.95734 m -260.03943,-29.05903 -4.8819,-13.70575 m 264.92133,42.76478 -16.69876,-3.24188 m 0,0 -17.40323,-1.32497 m -221.47909,-9.92614 -4.45835,-14.56604 m 225.93744,24.49218 -17.77309,0.70769 m -199.69326,4.38522 -4.01274,-15.01905 m 203.706,10.63383 -17.77915,2.75544 m 0,0 -17.42146,4.71432 m -160.92702,12.02774 -3.56563,-15.11228 m 164.49265,3.08454 -16.72894,6.48969 m -141.06484,20.44381 -3.13324,-14.90576 m 144.19808,-5.53805 -15.75479,8.00709 m -122.58285,26.900078 -2.7272,-14.463358 m 125.31005,-12.43672 -14.5682,9.21874 m -105.65985,31.527838 -2.3548,-13.8465 m 108.01465,-17.681338 -13.24457,10.105348 m -90.39548,34.532753 -2.0198,-13.110263 m 92.41528,-21.42249 -11.85679,10.67341 m -76.81559,36.16054 -1.7231,-12.301197 m 78.53869,-23.859343 -10.46843,10.94932 m -64.88352,36.668101 -1.46364,-11.456881 m 66.34716,-25.21122 -9.12993,10.97255 m -54.51452,36.301804 -1.23907,-10.606253 m 55.75359,-25.695551 -7.87742,10.7889 m -45.59079,35.283594 -1.04631,-9.77069 m 46.6371,-25.512904 -6.73369,10.44488 m -37.97517,33.803985 -0.88193,-8.965271 m 38.8571,-24.838714 -5.70992,9.984051 m -31.52274,32.019843 -0.74251,-8.199909 m 32.26525,-23.819934 -4.80861,9.4446 m -26.08941,30.055873 -0.62472,-7.48063 m 4.08905,76.364523 7.6e-4,0.304587 m -0.001,-0.641273 3.1e-4,0.336686 m -4e-5,-0.708856 -2.7e-4,0.37217 m 0.001,-0.783569 -0.001,0.411399 m -0.0508,-0.437069 -0.009,-0.45774 m 0.0633,0.02864 -0.002,0.45477 m -0.0612,-0.48341 -0.0105,-0.506058 m 0.0771,0.03197 -0.003,0.502725 m -0.0738,-0.534698 -0.012,-0.559515 m 0.0943,0.03575 -0.005,0.55574 m -0.0892,-0.591488 -0.0136,-0.618624 m 0.1151,0.04001 -0.008,0.614359 m -0.10786,-0.654373 -0.0155,-0.684021 m 0.14056,0.04486 -0.0106,0.67917 m -0.13046,-0.724035 -0.0176,-0.756335 m 0.17149,0.05038 -0.0136,0.750821 m -0.15806,-0.8012 -0.02,-0.83635 m 0.20938,0.05669 -0.0178,0.830046 m -0.19155,-0.886729 -0.0229,-0.924858 m 0.2557,0.06392 -0.0233,0.91763 m -0.2323,-0.981542 -0.0262,-1.022767 m -2.7401,-54.561293 -0.52551,-6.810402 m 3.57782,61.443922 -0.0303,1.014452 m 22.54189,-92.514262 -4.02583,8.858266 m -18.79799,82.569317 -0.0301,-1.131097 m 0.38121,0.08185 -0.0389,1.121479 m -0.34231,-1.203324 -0.0346,-1.250941 m 0.46551,0.09301 -0.0497,1.239776 m -0.41586,-1.332786 -0.0399,-1.383523 m 0.5684,0.10604 -0.063,1.370499 m -0.50543,-1.476533 -0.0462,-1.530219 m 0.69406,0.121316 -0.0795,1.514931 m -0.61458,-1.636253 -0.0535,-1.692489 m -2.09356,-41.382958 -0.44218,-6.190068 m 3.38323,47.712376 -0.0999,1.674461 m -0.74757,-1.813811 -0.0622,-1.872 m 0,0 -0.0723,-2.070525 m 1.10718,2.231283 -0.12518,1.850592 m -0.98203,-4.081875 -0.0845,-2.290052 m 1.34793,2.476365 -0.15628,2.04497 m 18.0297,-73.869793 -3.35362,8.250481 m -17.37001,31.566561 -0.37226,-5.618965 m 1.87454,35.150381 -0.0988,-2.532732 m 1.64136,2.749755 -0.1946,2.259342 m -1.44676,-5.009097 -0.11585,-2.800863 m -0.97389,-19.102444 -0.31369,-5.095377 m 1.28758,24.197821 -0.13619,-3.096998 m 2.13511,6.15204 -0.24168,2.495576 m -1.89343,-8.647616 -0.16033,-3.423767 m -0.41273,-7.964802 -0.26464,-4.616877 m 0.67737,12.581679 -0.18917,-3.784053 m 0,0 -0.22356,-4.180749 m 3.00776,14.784961 -0.29959,2.755648 m 14.08351,-58.819424 -2.78172,7.640678 m -10.63168,45.381512 -0.37052,3.041586 m 0.8279,-6.397048 -0.45738,3.355462 m 1.02096,-7.054769 -0.56358,3.699307 m 10.1743,-42.02605 -2.2989,7.043091 m -6.61863,27.208631 -0.69319,4.075021 m 1.54413,-8.559268 -0.85094,4.484247 m 6.61863,-27.208631 -1.89388,6.46774 m -2.83106,11.32847 -1.04275,4.928174 m 3.87381,-16.256644 -1.55591,5.921148 m 0,0 -1.27515,5.407322"
     style="fill:none;stroke:#000000;stroke-width:25;stroke-linecap:round;stroke-opacity:1"
     id="path833" />
</svg>
