<?xml version="1.0" encoding="UTF-8" standalone="no"?>
<svg
   xmlns:dc="http://purl.org/dc/elements/1.1/"
   xmlns:cc="http://creativecommons.org/ns#"
   xmlns:rdf="http://www.w3.org/1999/02/22-rdf-syntax-ns#"
   xmlns:svg="http://www.w3.org/2000/svg"
   xmlns="http://www.w3.org/2000/svg"
   xmlns:sodipodi="http://sodipodi.sourceforge.net/DTD/sodipodi-0.dtd"
   xmlns:inkscape="http://www.inkscape.org/namespaces/inkscape"
   viewBox="-540 -540 1080 1080"
   width="1080"
   height="1080"
   style=""
   stroke="#000000" 
   stroke-width="75"
   version="1.1"
   id="svg835"
   sodipodi:docname="face.svg"
   inkscape:version="1.0.2 (e86c8708, 2021-01-15)">
  <metadata
     id="metadata841">
    <rdf:RDF>
      <cc:Work
         rdf:about="">
        <dc:format>image/svg+xml</dc:format>
        <dc:type
           rdf:resource="http://purl.org/dc/dcmitype/StillImage" />
        <dc:title></dc:title>
      </cc:Work>
    </rdf:RDF>
  </metadata>
  <defs
     id="defs839" />
  <sodipodi:namedview
     pagecolor="#ffffff"
     bordercolor="#666666"
     borderopacity="1"
     objecttolerance="10"
     gridtolerance="10"
     guidetolerance="10"
     inkscape:pageopacity="0"
     inkscape:pageshadow="2"
     inkscape:window-width="1440"
     inkscape:window-height="792"
     id="namedview837"
     showgrid="false"
     inkscape:zoom="0.54156118"
     inkscape:cx="540"
     inkscape:cy="540"
     inkscape:window-x="0"
     inkscape:window-y="25"
     inkscape:window-maximized="1"
     inkscape:current-layer="svg835" />
  <path
     d="m 398.85422,139.1618 0.017,-0.49379 m 0,0 0.0188,-0.54564 m -0.0276,0.30925 0.0157,-0.57082 m 0.0117,0.26157 0.0204,-0.60295 m -0.0323,0.34138 0.0167,-0.63084 m 0.0155,0.28946 0.0223,-0.66623 m -0.0378,0.37677 0.0176,-0.69717 m 0.0203,0.3204 0.0243,-0.73617 m -0.0445,0.41577 0.0184,-0.77045 m 0.026,0.35468 0.0266,-0.81341 m -0.0526,0.45873 0.0191,-0.85143 m 0.0335,0.3927 0.0287,-0.89875 m -0.0621,0.50605 0.0195,-0.94091 m 0.0426,0.43486 0.0311,-0.99299 m -0.0736,0.55813 0.0198,-1.03979 m 0.0539,0.48166 0.0335,-1.09708 m -0.0874,0.61542 0.0195,-1.14904 m 0.0678,0.53362 0.0361,-1.21203 m -0.10391,0.67841 0.0186,-1.26973 m 0.0853,0.59132 0.0385,-1.33895 m -0.12383,0.74763 0.0172,-1.40308 m 0,0 0.0149,-1.55039 m 0.0918,2.20584 0.0412,-1.47908 m -0.13311,-0.72676 0.0104,-1.71309 m 0.12201,2.43985 0.0437,-1.63377 m -0.16568,-0.80608 0.005,-1.89279 m 0.15969,2.69887 0.0461,-1.80449 m -0.20582,-0.89438 -10e-4,-2.09123 m 0.2069,2.98561 0.0483,-1.99286 m -0.25521,-0.99275 -0.0104,-2.31033 m 0.26584,3.30308 0.0501,-2.20067 m -0.31595,-1.10241 -0.0233,-2.55218 m 0.33922,3.65459 0.0513,-2.42983 m -0.39059,-1.22476 -0.0398,-2.81909 m 0.43034,4.04385 0.052,-2.68246 m -0.48222,-1.36139 -0.0612,-3.11355 m 0.54337,4.47494 0.0513,-2.96082 m -0.59471,-1.51412 -0.0887,-3.43828 m 0.68328,4.9524 0.0495,-3.2674 m -0.73261,-1.685 -0.12344,-3.79624 m 0.85623,5.48124 0.0457,-3.60481 m -0.90191,-1.87643 -0.1678,-4.190568 m 1.06971,6.066998 0.0396,-3.97591 m -1.1093,-2.091088 -0.22366,-4.624688 m 1.33296,6.715776 0.0303,-4.383665 m -1.36337,-2.332111 -0.29382,-5.10218 m 1.65719,7.434291 0.0172,-4.8312 m -1.67444,-2.603091 -0.38158,-5.626837 m 2.05602,8.229928 -8.2e-4,-5.321763 m -2.0552,-2.908165 -0.49104,-6.202555 m 2.54624,9.11072 -0.0251,-5.858595 m -2.52104,-3.252125 -0.62711,-6.833275 m 3.14815,10.0854 -0.0576,-6.444927 m -3.0906,-3.640473 -0.79585,-7.522953 m 0,0 -1.00443,-8.275157 m 4.89088,19.438583 -0.0997,-7.083771 m -4.79117,-12.354812 -1.26172,-9.093194 m 6.05289,21.448006 -0.15423,-7.777798 m -5.89866,-13.670208 -1.57808,-9.979371 m 7.47674,23.649579 -0.22397,-8.528999 m -7.25277,-15.12058 -1.96607,-10.935 m 9.21884,26.05558 -0.3125,-9.338495 M 389.93586,25.445412 387.4955,13.485979 m 11.3467,28.676518 -0.42404,-10.205895 M 387.4955,13.485979 384.47724,0.436477 m 13.94092,31.520125 -0.56373,-11.128895 M 384.47724,0.436477 380.75755,-13.76216 m 17.09688,34.589867 -0.73748,-12.102389 m -16.3594,-22.487478 -4.56731,-15.39541 M 397.11695,8.725318 396.16466,-4.39222 M 376.19024,-29.15757 370.604,-45.77983 m 25.56066,41.38761 -1.2161,-14.16069 M 370.604,-45.77983 363.80033,-63.63361 m 31.14823,45.0807 -1.53789,-15.21192 m -29.61034,-29.86878 -8.24774,-19.05462 m 37.85808,48.9234 -1.92735,-16.24345 m -35.93073,-32.67995 -9.94571,-20.17792 m 0,0 -11.92146,-21.16319 m 57.7979,74.02106 -2.39471,-17.21802 m -55.40319,-56.80304 -14.19126,-21.93564 m 69.59445,78.73868 -2.9501,-18.0873 m -66.64435,-60.65138 -16.75948,-22.40644 m 83.40383,83.05782 -3.60251,-18.79068 m -79.80132,-64.26714 -19.61182,-22.4748 m 99.41314,86.74194 -4.35873,-19.25473 m -95.05441,-67.48721 -22.70918,-22.03405 m 117.76359,89.52126 -5.22133,-19.39448 m 0,0 -6.18678,-19.11646 m 0,0 -7.24299,-18.32501 m 0,0 -8.36725,-16.93187 m 0,0 -9.52458,-14.86905 m 0,0 -10.66777,-12.10414 m 0,0 -11.73934,-8.65521 m -385.453823,-49.3627 35.322817,-9.02694 m 0,0 7.506377,-1.50359 m 0,0 7.529691,-1.3863 m 0,0 7.551182,-1.26854 m 0,0 7.570817,-1.15046 m 0,0 7.588643,-1.03209 m 0,0 7.604607,-0.91345 m 0,0 7.618748,-0.79445 m 0,0 7.631026,-0.67535 m 0,0 7.64143,-0.55599 m 0,0 7.649997,-0.43644 m 0,0 7.656691,-0.3168 m 0,0 7.661534,-0.19699 m 0,0 7.664516,-0.0772 m 0,0 7.665622,0.0427 m 0,0 7.664815,0.16273 m 0,0 7.66222,0.28265 m 0,0 7.65768,0.40258 m 0,0 7.6513,0.52245 m 0,0 7.64305,0.64222 m 0,0 7.63293,0.76181 m 0,0 7.62093,0.88139 m 0,0 7.60707,1.00068 m 0,0 7.59132,1.1198 m 0,0 7.57375,1.23868 m 0,0 7.55428,1.35732 m 0,0 7.53301,1.47558 m 0,0 7.50981,1.59367 m 0,0 7.48482,1.71131 m 0,0 7.45796,1.82853 m 0,0 7.42927,1.94549 m 0,0 7.39873,2.06189 m 0,0 7.3664,2.17781 m 0,0 7.33225,2.29336 m 0,0 7.29622,2.40826 m 0,0 7.25848,2.52265 m 0,0 7.2189,2.63648 m 0,0 7.17751,2.74971 m 0,0 7.13434,2.86228 m 0,0 7.08943,2.97421 m 0,0 7.04275,3.08543 m 0,0 6.99434,3.19588 m 0,0 6.94414,3.3057 m 0,0 6.89224,3.41463 m 0,0 6.83862,3.5228 m 0,0 6.78328,3.63017 m 0,0 6.7263,3.73668 m 0,0 6.66758,3.84223 m 2.1544,1.3074 -12.67602,-4.60197 m -372.777803,-44.7606 -39.982507,14.78132 m 0,0 -37.88327,18.80481 m 450.64358,11.17447 -13.41555,-0.0891 m -437.22803,-11.08551 -35.20097,22.09126 m 0,0 -32.1186,24.56497 m 0,0 -28.82044,26.22069 m 533.36804,-61.79141 -13.90474,4.68194 m -519.4633,57.10947 -25.47306,27.11095 m 0,0 -22.21263,27.32828 m 0,0 -19.13987,26.98717 m 0,0 -16.32055,26.20794 m -75.97797,301.05332 0.0134,0.40095 m -0.0273,-0.84404 0.0139,0.44309 m -0.0289,-0.93271 0.015,0.48962 m -0.0307,-1.03067 0.0158,0.54105 m -0.0322,-1.13892 0.0164,0.59787 m -0.0333,-1.25852 0.0169,0.66065 m -0.0684,-1.65758 0.0225,0.75704 m 0.0117,-0.4901 0.0173,0.72999 m -0.0751,-1.83384 0.0237,0.83691 m 0.0167,-0.53965 0.0174,0.80659 m -0.0824,-2.02907 0.0246,0.92522 m 0.0233,-0.59395 0.0171,0.89121 m -0.0905,-2.24537 0.0254,1.02289 m 0.0316,-0.65338 0.0164,0.98465 m -0.0991,-2.48505 0.0258,1.13089 m 0.0419,-0.71833 0.015,1.08784 m -0.10847,-2.75073 0.0258,1.25033 m 0.0553,-0.78922 0.0117,1.20178 m -0.11875,-3.04532 0.0251,1.38243 m 0.0716,-0.86647 0.009,1.32758 m -0.12969,-3.37208 0.0236,1.52854 m 0.0924,-0.95046 0.004,1.46642 m -0.14147,-3.73464 0.0211,1.69014 m 0.1181,-1.04156 -0.003,1.61964 m -0.15409,-4.13711 0.0171,1.86889 m -0.0284,-3.9355 0.0104,2.06661 m 0.16703,0.72882 -0.0104,1.78865 m -0.17081,-6.86938 0.003,2.2853 m 0.20092,0.82036 -0.0225,1.97507 m -0.17413,-7.60791 -0.008,2.52718 m 0.24186,0.92512 -0.0376,2.18054 m -0.17449,-8.42758 -0.0221,2.79474 m 76.32675,-278.80878 -13.79012,25.1055 m -62.24497,254.74862 -0.0573,2.40696 m -0.17089,-9.33767 -0.0413,3.09063 m 0.35185,1.18382 -0.0824,2.65626 m -0.1621,-10.34856 -0.0661,3.41785 m 0.425,1.34384 -0.11445,2.93061 m -0.14631,-11.47195 -0.0982,3.77965 m 0.23728,-7.9592 -0.13911,4.17955 m 0.41553,5.30915 -0.15482,3.23219 m 0.0695,-17.34238 -0.19111,4.62149 m 0.4822,5.92528 -0.20578,3.56342 m 0.1715,-19.21979 -0.25681,5.1096 m 0.56077,6.62008 -0.26968,3.92669 m 0.30515,-21.30482 -0.33943,5.64845 m 61.72188,-226.70977 -11.55973,23.7821 m -49.37968,191.03637 -0.44304,6.24285 m 0.31402,13.05364 -0.34949,4.32449 m 1.05075,-30.51884 -0.57224,6.89786 m 677.33894,-404.66778 -14.10767,9.47105 m -662.91146,409.734 -0.44883,4.75922 m 1.43433,-33.81316 -0.73307,7.61881 m 1.66559,-16.02982 -0.93252,8.41101 m 48.07437,-176.5197 -9.62317,22.323703 m -38.86451,178.016717 -0.57219,5.23322 m 3.09712,-46.74469 -1.1791,9.27974 m 2.66223,-19.50972 -1.48313,10.22998 m -1.80025,35.763 -0.72468,5.74847 m 38.86451,-178.016717 -7.96243,20.799306 M -391.3544,118.2 l -1.85687,11.26589 m 4.17153,-23.65643 -2.31466,12.39054 m 25.03715,-94.210071 -6.55288,19.262032 m -22.71169,125.900369 -0.91283,6.30654 m 10.32849,-83.254506 -2.87358,13.605096 m 6.4268,-28.513026 -3.55322,14.90793 m 13.29603,-48.952403 -5.36688,17.750932 m 0,0 -4.37593,16.293541 m -11.8248,84.947646 -1.14408,6.90825 m 2.57168,-14.46165 -1.4276,7.5534 m 3.20126,-15.7936 -1.77366,8.2402 m 3.96835,-17.20506 -2.19469,8.96486 m 4.89926,-18.6856 -2.70457,9.72074 m 6.02357,-20.21832 -3.319,10.49758 m 7.374,-21.77794 -4.055,11.28036 m 8.98553,-23.328704 -4.93053,12.048344 m 10.89413,-24.822024 -5.9636,12.77368 m 639.15263,-317.232036 -14.01112,14.02881 m -612.0075,277.009065 -7.17041,13.420481 m 15.73429,-27.364454 -8.56388,13.943973 m 18.71386,-28.234588 -10.14998,14.290615 m 22.07487,-28.689616 -11.92489,14.399001 m 593.29364,-248.774477 -13.62663,18.12697 M -316.38939,10.908004 -330.25993,25.110846 M -300.439,-2.72776 -316.38939,10.908004 m 34.0574,-26.274594 -18.10701,12.63883 m 537.92119,-188.4099 -12.98832,21.58559 m -486.56586,143.01579 -20.26,11.16969 m 42.56894,-20.38312 -22.30894,9.21343 m 486.56586,-143.01579 -12.14686,24.29072 m -427.97065,102.71988 -24.13941,6.79176 m 49.77338,-10.7614 -25.63397,3.96964 m 427.97065,-102.71988 -11.16206,26.19887 m -364.48805,71.69643 -26.68657,0.85494 m 53.90373,1.55377 -27.21716,-2.40871 m 364.48805,-71.69643 -10.09466,27.33073 m -299.99161,52.43138 -27.18462,-5.65697 m 327.17623,-46.77441 -9.00006,27.75669 m -264.398276,33.399 -26.593274,-8.72431 m 290.99155,-24.67469 -7.92415,27.57891 m -230.9821,17.28427 -25.492026,-11.46418 m 49.458374,25.22959 -23.966348,-13.76541 m 230.9821,-17.28427 -6.90141,26.9144 M -10.724777,10.214974 -32.849462,-5.34645 M 167.26488,-9.48173 161.30976,16.398858 M 9.359043,27.046331 -10.724777,10.214974 m 172.034537,6.183884 -5.09839,24.586185 M 27.313869,44.640829 9.359043,27.046331 m 146.852327,13.938712 -4.33645,23.12515 M 43.147734,62.540941 27.313869,44.640829 M 151.87492,64.110193 148.20627,85.684854 M 56.943868,80.356977 43.147734,62.540941 m 105.058536,23.143913 -3.0901,19.995246 m -15.80017,195.77242 -0.001,-0.4731 M 68.838742,97.774943 56.943868,80.356977 m 72.370882,220.622443 -0.003,-0.52298 m 0,0 -0.003,-0.57815 m 0,0 -0.004,-0.63914 m 0,0 -0.007,-0.70657 m 0.10808,-0.6847 -0.0117,0.77224 m -0.0957,-0.0875 -0.009,-0.78116 m 0.13138,-0.75742 -0.0143,0.85387 m -0.11706,-0.0965 -0.0117,-0.8636 m 0.15949,-0.83796 -0.0164,0.94415 m -0.14306,-0.10619 -0.0154,-0.95482 m 0.19377,-0.92716 -0.019,1.04402 m -0.17488,-0.11686 -0.02,-1.05566 m 0.23555,-1.02603 -0.0217,1.15453 m -0.21373,-0.12849 -0.0257,-1.16721 m 0.28645,-1.1356 -0.0251,1.27679 m 15.63941,-188.17121 -2.59381,18.43213 m -13.30573,169.59789 -0.0328,-1.29056 m 0.34849,-1.25711 -0.0292,1.41207 m -0.31929,-0.15496 -0.0417,-1.42697 m 0.42419,-1.39192 -0.034,1.56178 m -0.39022,-0.16986 -0.0527,-1.57783 m 0.51641,-1.54155 -0.0396,1.72746 m -0.47689,-0.18591 -0.0663,-1.74468 m 0.62887,-1.70771 -0.0461,1.91084 m -0.58269,-0.20313 -0.0831,-1.92914 m 0.76607,-1.8924 -0.054,2.11383 m -0.71202,-0.22143 -0.10391,-2.1331 m 0.93338,-2.09782 -0.0635,2.33852 m -0.86994,-0.2407 -0.12956,-2.35857 m 1.13751,-2.32649 -0.0746,2.58724 m -1.06294,-0.26075 -0.16103,-2.60777 M 79.00293,114.55605 68.840057,97.774953 m 61.093213,178.285247 -0.0879,2.86259 m -1.29855,-0.28128 -0.19989,-2.88308 m 1.69034,-2.86564 -0.10391,3.16741 m 12.59041,-151.94796 -2.17132,16.91766 m -12.00548,134.72853 -0.24756,-3.18717 m 2.06087,-3.18326 -0.12305,3.50479 m -1.9379,-0.32153 -0.30606,-3.52283 m 2.51291,-3.53869 -0.14598,3.87826 m -2.36693,-0.33957 -0.37785,-3.89307 m 3.06423,-3.93714 -0.17347,4.29152 m -2.89076,-0.35438 -0.46573,-4.30115 m 3.73651,-4.38471 -0.20655,4.74872 m -42.8578,-130.68769 -8.6156,-15.97438 m 61.34941,26.47385 -1.81388,15.47358 m -11.58879,104.35074 -0.57332,-4.75035 m 4.55623,-4.88872 -0.24639,5.25436 m -4.30984,-0.36564 -0.70485,-5.24417 m 5.55541,-5.45775 -0.29433,5.8132 m -5.26108,-0.35545 -0.86524,-5.78601 m 6.77267,-6.10218 -0.35202,6.43044 m 7.31155,-88.89847 -1.51304,14.11337 m -5.02489,61.24315 -0.4216,7.11151 m -6.77267,6.10218 -1.0609,-6.37916 m -28.87125,-93.1067 -7.25558,-15.0574 m 44.88741,93.46756 -0.50541,7.86201 m 5.02489,-61.24315 -1.26085,12.84424 m -12.01921,55.23344 -1.29872,-7.02662 m 10.66565,-16.35762 -0.60635,8.6877 m 3.25863,-40.5369 -1.05,11.66877 m -0.87429,10.58634 -0.72799,9.59409 m -10.66565,16.35762 -1.58754,-7.7307 m 13.85547,-28.80735 -0.87429,10.58634 m -32.89028,-46.04931 -6.07589,-14.07906 m 25.98499,78.34938 -1.93734,-8.49281 m 0,0 -2.3597,-9.31288 m -10.54831,-33.3867 -5.06375,-13.07793 m 15.61206,46.46463 -2.868,-10.1887 m -3.47706,-11.11508 -4.20325,-12.08292 m 7.68031,23.198 -3.47706,-11.11508"
     style="fill:none;stroke-linecap:round;stroke-opacity:1" 
     id="face-path" />
</svg>
