<?xml version="1.0" standalone="no"?>
<svg
xmlns="http://www.w3.org/2000/svg"
viewBox="0 0 800 800"
width="800" height="800"
style="background-color:#731A3B;">
<path
d="
M493.16 438.25A218.91 119.22 70.60 0 0 445.48 502.07 
M368.93 429.54A1872.29 404.64 92.02 0 1 441.63 518.09 
M309.49 486.04A288.34 228.25 95.58 0 1 441.63 518.09 
M515.59 396.66A470.89 307.99 30.67 0 0 441.63 518.09 
M366.52 305.02A218.91 119.22 22.30 0 1 300.36 349.41 
M368.93 429.54A1872.29 404.64 0.89 0 0 284.17 352.45 
M309.49 486.04A288.34 228.25 177.32 0 0 284.17 352.45 
M409.19 284.73A470.89 307.99 62.23 0 1 284.17 352.45 
M489.55 430.36L489.95 431.28 490.34 432.19 490.74 433.09 491.14 433.98 491.54 434.86 491.94 435.72 492.35 436.58 492.75 437.42 493.16 438.25
M489.35 421.77A285.58 71.21 2.21 0 0 493.16 438.25 
M374.22 309.03L373.32 308.59 372.43 308.14 371.55 307.70 370.68 307.26 369.83 306.81 368.98 306.36 368.15 305.92 367.33 305.47 366.52 305.02
M382.78 309.66A285.93 71.30 90.69 0 1 366.52 305.02 
M309.49 486.04L368.93 429.54
M515.59 396.66L514.22 396.86 512.85 397.06 511.47 397.26 510.08 397.47 508.69 397.68 507.28 397.89 505.87 398.11 504.45 398.33 503.02 398.55 501.59 398.77 500.14 399.00 498.69 399.23 497.24 399.46 495.78 399.70 494.31 399.94 492.83 400.18 491.35 400.43 489.87 400.68 488.37 400.93 486.87 401.19 485.37 401.44 483.86 401.70 482.35 401.97 480.83 402.24 479.31 402.51 477.78 402.78 476.25 403.06 474.72 403.34 473.18 403.62 471.64 403.91 470.10 404.19 468.55 404.49 467.00 404.78 465.45 405.08 463.89 405.38 462.34 405.68 460.78 405.99 459.22 406.30 457.66 406.61 456.10 406.93 454.53 407.25 452.97 407.57 451.41 407.89 449.84 408.22 448.28 408.55 446.72 408.88 445.15 409.22 443.59 409.56 442.03 409.90 440.47 410.24 438.92 410.59 437.36 410.94 435.81 411.29 434.26 411.64 432.71 412.00 431.16 412.35 429.62 412.71 428.08 413.08 426.54 413.44 425.01 413.81 423.48 414.18 421.96 414.55 420.44 414.92 418.92 415.30 417.41 415.67 415.91 416.05 414.41 416.43 412.91 416.81 411.42 417.20 409.94 417.58 408.46 417.97 406.99 418.36 405.52 418.75 404.06 419.14 402.61 419.53 401.17 419.92 399.73 420.32 398.30 420.71 396.87 421.11 395.46 421.51 394.05 421.91 392.65 422.31 391.25 422.71 389.87 423.11 388.49 423.51 387.13 423.91 385.77 424.31 384.42 424.71 383.07 425.11 381.74 425.52 380.42 425.92 379.10 426.32 377.80 426.73 376.50 427.13 375.21 427.53 373.94 427.93 372.67 428.34 371.41 428.74 370.16 429.14 368.93 429.54
M409.19 284.73L408.92 286.08 408.65 287.44 408.38 288.81 408.10 290.19 407.82 291.57 407.54 292.96 407.25 294.36 406.96 295.77 406.67 297.19 406.37 298.61 406.07 300.04 405.77 301.47 405.46 302.91 405.15 304.36 404.84 305.82 404.52 307.28 404.20 308.74 403.87 310.22 403.55 311.69 403.22 313.18 402.88 314.66 402.54 316.16 402.20 317.66 401.86 319.16 401.51 320.66 401.16 322.18 400.81 323.69 400.45 325.21 400.09 326.73 399.73 328.25 399.36 329.78 398.99 331.31 398.62 332.84 398.24 334.38 397.86 335.92 397.48 337.46 397.09 339.00 396.71 340.54 396.31 342.08 395.92 343.62 395.52 345.17 395.12 346.71 394.72 348.26 394.31 349.80 393.90 351.35 393.49 352.89 393.08 354.44 392.66 355.98 392.24 357.52 391.82 359.06 391.40 360.60 390.97 362.13 390.54 363.67 390.11 365.20 389.68 366.73 389.24 368.25 388.80 369.77 388.36 371.29 387.92 372.81 387.48 374.32 387.03 375.83 386.58 377.33 386.13 378.83 385.68 380.33 385.23 381.82 384.78 383.30 384.32 384.78 383.86 386.25 383.40 387.72 382.94 389.18 382.48 390.64 382.02 392.09 381.56 393.54 381.09 394.97 380.63 396.40 380.16 397.83 379.69 399.24 379.23 400.65 378.76 402.05 378.29 403.45 377.82 404.83 377.35 406.21 376.88 407.58 376.41 408.95 375.94 410.30 375.47 411.65 375.00 412.98 374.53 414.31 374.06 415.63 373.59 416.94 373.12 418.24 372.65 419.54 372.18 420.82 371.72 422.09 371.25 423.36 370.78 424.61 370.32 425.86 369.85 427.10 369.39 428.32 368.93 429.54
M515.59 396.66A305.12 135.26 169.63 0 1 480.04 323.91 
M409.19 284.73A305.12 135.26 103.28 0 0 480.04 323.91 
M409.19 284.73A737.80 434.70 136.45 0 0 515.59 396.66 
"
style="fill:none;stroke:#BB5037;stroke-opacity:1;stroke-width:3;stroke-linecap:round"/>
</svg>